<?xml version="1.0" encoding="utf-8"?>
<!-- Generator: Adobe Illustrator 19.0.0, SVG Export Plug-In . SVG Version: 6.00 Build 0)  -->
<svg version="1.1" id="Layer_1" xmlns="http://www.w3.org/2000/svg" xmlns:xlink="http://www.w3.org/1999/xlink" x="0px" y="0px"
	 viewBox="228 -217 475 452" style="enable-background:new 228 -217 475 452;" xml:space="preserve">
<g id="XMLID_171_">
	<g id="XMLID_12_">
		
			<linearGradient id="XMLID_2_" gradientUnits="userSpaceOnUse" x1="228" y1="-424" x2="703" y2="-424" gradientTransform="matrix(1 0 0 1 0 433)">
			<stop  offset="0" style="stop-color:#2C93C6"/>
			<stop  offset="0.2163" style="stop-color:#1F7DAF"/>
			<stop  offset="0.5107" style="stop-color:#116696"/>
			<stop  offset="0.7803" style="stop-color:#085887"/>
			<stop  offset="1" style="stop-color:#055382"/>
		</linearGradient>
		<path id="XMLID_18_" style="fill:url(#XMLID_2_);" d="M702.6,234.8H228.4c-0.2,0-0.4-0.2-0.4-0.4v-450.8c0-0.2,0.2-0.4,0.4-0.4
			h474.2c0.2,0,0.4,0.2,0.4,0.4v450.8C703,234.6,702.8,234.8,702.6,234.8z"/>
	</g>
</g>
<path id="XMLID_170_" style="opacity:0.1;fill:#353535;enable-background:new    ;" d="M465.5,170.9L465.5,170.9
	c-89.4,0-161.9-72.5-161.9-161.9l0,0c0-89.4,72.5-161.9,161.9-161.9l0,0c89.4,0,161.9,72.5,161.9,161.9l0,0
	C627.4,98.4,554.9,170.9,465.5,170.9z"/>
<g id="XMLID_143_">
	<path id="XMLID_271_" style="fill:#FFFFFF;" d="M539.2-17.7c1.3-2.9,2.3-5.2,3.4-7.6c1.3-2.9,2.6-3.6,5.7-3.1
		c3.5,0.6,7.1,1.2,10.6,1.8c2.8,0.5,4.1,2.1,4.3,5c0.2,3.8-0.9,5.7-3.9,6.4c-5.2,1.3-10.4,2.4-15.8,3.6c2.3,3.5,4.4,6.9,6.7,10.2
		c4.9,7,7.1,14.8,7,23.4c-0.1,8.2,0,16.4,0,24.6c0,0.8,0,1.6,0,2.5c-68.4,0-136.6,0-204.9,0c0-4.5,0-8.8,0-13.1
		c0.1-6.7,0-13.3,0.3-20c0.3-6,2.7-11.5,6-16.5c2.4-3.6,4.7-7.2,7.2-11.1c-5.3-1.2-10.3-2.4-15.3-3.6c-3.3-0.8-4.4-2.2-4.4-5.6
		c0-3.9,1.1-5.4,5-6.1c3.4-0.6,6.8-1.2,10.2-1.8c2.5-0.4,4.1,0.3,5.2,2.6c1.2,2.5,2.3,5.1,3.6,8c0.8-1.4,1.4-2.4,1.9-3.5
		c2.9-6.8,6-13.5,8.6-20.4c4.3-11.2,12.3-16.8,24-18.3c22.7-2.9,45.4-4.2,68.2-2.9c12.2,0.7,24.4,2.1,36.5,3.8
		c8.5,1.2,14.5,6.5,17.9,14.3c3.5,7.7,6.7,15.6,10,23.4C537.8-20.2,538.4-19.2,539.2-17.7z M380.3-23.1c49.7,0,99,0,148.6,0
		c-3.1-7.1-5.9-14-9.2-20.7c-2.5-4.9-6.9-7.9-12.4-8.5c-12.2-1.4-24.5-2.9-36.7-3.5c-22.8-1.2-45.5,0-68.2,3.4
		c-5.6,0.9-10.3,3.5-12.9,8.5C386.2-37.2,383.5-30.2,380.3-23.1z M408.7,13.6c2.8,5.9,5.4,11,7.6,16.3c1.2,2.8,2.6,4.3,5.8,3.8
		c1.1-0.2,2.3,0.1,3.5,0.2c9.7,0.5,19.5,1.5,29.2,1.5c11.6-0.1,23.3-1.1,34.9-1.8c0.6,0,1.6-0.4,1.8-0.8c3-6.2,5.9-12.4,9.1-19.1
		C469.8,17.4,439.5,17.5,408.7,13.6z M505,30.2c0.2,0.2,0.3,0.4,0.5,0.6c3.4-0.5,6.8-1,10.2-1.4c6.5-0.9,13-1.8,19.6-2.7
		c2.8-0.4,5.1-1.6,6.1-4.3c1.2-3.1,1.3-6.3,0.2-9.4c-0.7-2-2.1-3-4.2-2.8c-6.3,0.5-12.5,1-18.8,1.7c-1.1,0.1-2.5,0.8-3.1,1.7
		C511.8,19,508.4,24.6,505,30.2z M403.9,30.8c0.2-0.2,0.3-0.3,0.5-0.5c-3.7-5.8-7.3-11.6-11-17.3c-0.4-0.7-1.6-1.1-2.5-1.2
		c-5.8-0.6-11.7-1.1-17.5-1.6c-4-0.4-5.6,0.7-6.2,4.7c-0.9,5.8,0.6,11.5,8.4,12c5.7,0.4,11.3,1.6,16.9,2.4
		C396.4,29.8,400.2,30.3,403.9,30.8z"/>
	<path id="XMLID_270_" style="fill:#FFFFFF;" d="M557,56.6c0.3,5.4-0.1,10.6-2.9,15.2c-4.3,6.9-11,9.3-18.6,9.8
		c-0.9,0.1-1.9,0.1-2.9,0.1c-52,0-103.9,0-155.9-0.1c-3.6,0-7.4-0.5-10.8-1.5c-8.2-2.5-13.2-9.3-13.7-18c-0.1-1.7,0-3.5,0-5.4
		C420.5,56.6,488.7,56.6,557,56.6z"/>
	<path id="XMLID_269_" style="fill:#FFFFFF;" d="M529.4,88.6c10.3,0.9,19.6-1.2,27.4-8.8c0.1,0.9,0.2,1.3,0.2,1.8
		c0,5.3,0,10.5,0,15.8c0,4-1.8,5.8-5.7,5.8c-5.5,0-11,0-16.5,0c-3.7,0-5.6-1.8-5.7-5.4c-0.1-2.7,0-5.4,0-8.1
		C529.2,89.5,529.2,89.3,529.4,88.6z"/>
	<path id="XMLID_268_" style="fill:#FFFFFF;" d="M379.8,88.6c0,3.7,0.1,7.1,0,10.4c-0.1,2.4-2.1,4.2-4.5,4.2
		c-6.2,0.1-12.4,0.1-18.7,0c-2.6,0-4.4-2-4.5-4.5c-0.1-6.2,0-12.4,0-19.2C360,87.2,369.3,89.6,379.8,88.6z"/>
	<path id="XMLID_267_" style="fill:#FFFFFF;" d="M476.2-98c11.6-5.2,11.1-4.1,16.8-16.8c2,8.9,7.1,14.4,16,16.5
		c-8.7,2.3-14.2,7.6-16.2,16.5C490.6-90.7,485.3-96.1,476.2-98z"/>
	<path id="XMLID_266_" style="fill:#FFFFFF;" d="M562.9-98.1c-7,1.6-11,5.5-12.6,12.1c-1.7-6.6-5.7-10.6-12.2-12.3
		c6.5-1.7,10.6-5.7,12-12.6C554.5-102,554.5-102,562.9-98.1z"/>
	<path id="XMLID_265_" style="fill:#FFFFFF;" d="M540.5-76.4c-6.6,1.7-10.5,5.6-12.2,12.2c-1.7-6.5-5.6-10.6-12.3-12.2
		c6.5-1.7,10.7-5.6,12.3-12.3C529.9-82.1,533.9-78.1,540.5-76.4z"/>
</g>
</svg>
