<?xml version="1.0" encoding="utf-8"?>
<!-- Generator: Adobe Illustrator 19.0.0, SVG Export Plug-In . SVG Version: 6.00 Build 0)  -->
<svg version="1.1" id="Layer_1" xmlns="http://www.w3.org/2000/svg" xmlns:xlink="http://www.w3.org/1999/xlink" x="0px" y="0px"
	 viewBox="228 -217 475 452" style="enable-background:new 228 -217 475 452;" xml:space="preserve">
<g id="XMLID_163_">
	<g id="XMLID_12_">
		
			<linearGradient id="XMLID_2_" gradientUnits="userSpaceOnUse" x1="228" y1="-424" x2="704.2" y2="-424" gradientTransform="matrix(1 0 0 1 0 433)">
			<stop  offset="0" style="stop-color:#DD5E92"/>
			<stop  offset="0.0313" style="stop-color:#D95A8E"/>
			<stop  offset="0.3071" style="stop-color:#B83A6B"/>
			<stop  offset="0.568" style="stop-color:#A02352"/>
			<stop  offset="0.806" style="stop-color:#911543"/>
			<stop  offset="1" style="stop-color:#8C103E"/>
		</linearGradient>
		<path id="XMLID_18_" style="fill:url(#XMLID_2_);" d="M703.8,234.8H228.4c-0.2,0-0.4-0.2-0.4-0.4v-450.8c0-0.2,0.2-0.4,0.4-0.4
			h475.4c0.2,0,0.4,0.2,0.4,0.4v450.8C704.2,234.6,704,234.8,703.8,234.8z"/>
		<path id="XMLID_17_" style="fill:none;stroke:#EDEDED;stroke-width:0.5;stroke-miterlimit:10;" d="M703.8,234.8H228.4
			c-0.2,0-0.4-0.2-0.4-0.4v-450.8c0-0.2,0.2-0.4,0.4-0.4h475.4c0.2,0,0.4,0.2,0.4,0.4v450.8C704.2,234.6,704,234.8,703.8,234.8z"/>
	</g>
</g>
<path id="XMLID_162_" style="opacity:0.1;fill:#353535;enable-background:new    ;" d="M465.5,170.9L465.5,170.9
	c-89.4,0-161.9-72.5-161.9-161.9l0,0c0-89.4,72.5-161.9,161.9-161.9l0,0c89.4,0,161.9,72.5,161.9,161.9l0,0
	C627.4,98.4,554.9,170.9,465.5,170.9z"/>
<g id="XMLID_130_">
	<path id="XMLID_226_" style="fill:#FFFFFF;" d="M362.8,91.2c1.4-3.2,3.8-4.6,7.4-4.6c3.8,0.1,7.4-0.9,10.8-2.7
		c5.9-3.1,12.1-5.3,19.2-5.2c-0.3-0.9-0.5-1.5-0.8-2.2c-6.9-17.4-13.8-34.7-20.6-52.1c-1.5-3.7-0.6-5.3,3.1-6.3
		c27.3-7.1,54.6-14.3,81.9-21.4c1-0.3,2.3-0.3,3.3,0c27.1,7,54.2,14.1,81.4,21.2c4.5,1.2,5.2,2.7,3.5,7.1
		c-6.8,17.2-13.7,34.4-20.5,51.5c-0.2,0.6-0.4,1.2-0.7,1.9c2.4,0.3,4.8,0.2,7,0.9c4.2,1.3,8.3,2.9,12.3,4.6
		c3.4,1.5,6.9,2.6,10.6,2.6c3.6-0.1,6,1.3,7.4,4.6c0,0.9,0,1.9,0,2.8c-2,4-3.5,4.9-8.1,4.7c-5.6-0.2-11-1.6-15.9-4.2
		c-9.5-5.1-19-5.1-28.5,0c-2.5,1.3-5.2,2.5-8,3.1c-9.5,2.2-18.8,1.5-27.7-2.9c-2.8-1.4-5.7-2.7-8.7-3.3c-6.9-1.4-13.4-0.2-19.8,3
		c-12,6.1-24.1,6-36.2,0.2c-1.4-0.7-2.9-1.5-4.4-2c-7.4-2.6-14.7-2.6-21.8,0.9c-5.8,2.9-11.7,5.1-18.3,5.3c-4.5,0.1-6.1-0.7-8.1-4.7
		C362.8,93.1,362.8,92.2,362.8,91.2z M411.8,38.9c0.5-0.1,1.3-0.2,2-0.4c16.8-4.4,33.6-8.7,50.4-13.1c0.8-0.2,1.7-0.2,2.5,0
		c11.2,2.9,22.5,5.8,33.7,8.8c5.7,1.5,11.4,3,17,4.5c4.1,1,7.6-1.2,8.1-5c0.4-3.2-1.7-5.8-5.6-6.9c-17.3-4.5-34.6-9.1-51.9-13.5
		c-1.6-0.4-3.5-0.4-5.1,0c-9.1,2.3-18.2,4.7-27.3,7.1c-8.5,2.2-17,4.5-25.6,6.7c-3.1,0.8-5.1,3.6-4.7,6.6
		C405.8,36.7,408.4,38.9,411.8,38.9z"/>
	<path id="XMLID_224_" style="fill:#FFFFFF;" d="M527.2-0.1c-6.7-1.7-13.1-3.4-19.5-5.1c-13-3.4-26.1-6.9-39.1-10.2
		c-1.9-0.5-4.2-0.5-6.1,0c-19.1,4.9-38.1,9.9-57.1,14.9c-0.4,0.1-0.9,0.2-1.6,0.3c0-0.7-0.1-1.4-0.1-2c0-11.8,0-23.7,0-35.5
		c0-3.8,1.3-5.1,5.2-5.1c37.7,0,75.4,0,113.1,0c3.9,0,5.2,1.3,5.2,5.1c0,11.8,0,23.7,0,35.5C527.2-1.6,527.2-1,527.2-0.1z"/>
	<path id="XMLID_223_" style="fill:#FFFFFF;" d="M483.6-54.9c-12.1,0-24,0-36,0c-0.1-0.5-0.2-1-0.2-1.5c0-4.6,0-9.2,0-13.8
		c0.1-5.8,4.1-10.2,9.9-10.5c5.4-0.2,10.8-0.2,16.2,0c5.8,0.2,10,4.6,10,10.4C483.6-65.3,483.6-60.2,483.6-54.9z"/>
</g>
</svg>
