<?xml version="1.0" encoding="utf-8"?>
<!-- Generator: Adobe Illustrator 19.0.0, SVG Export Plug-In . SVG Version: 6.00 Build 0)  -->
<svg version="1.1" id="Layer_1" xmlns="http://www.w3.org/2000/svg" xmlns:xlink="http://www.w3.org/1999/xlink" x="0px" y="0px"
	 viewBox="0 0 150 20" style="enable-background:new 0 0 150 20;" xml:space="preserve">
<style type="text/css">
	.st0{fill:#444444;}
</style>
<g id="XMLID_4_">
	<path id="XMLID_8_" class="st0" d="M7.8,12c-0.5,0-1-0.2-1.4-0.6C6,11,5.8,10.5,5.8,10c0-0.5,0.2-1,0.6-1.4c0.7-0.8,2.1-0.8,2.8,0
		C9.5,9,9.8,9.5,9.8,10c0,0.5-0.2,1-0.6,1.4C8.8,11.8,8.3,12,7.8,12z"/>
	<path id="XMLID_7_" class="st0" d="M13.5,10c0-1.1,0.9-2,2-2l0,0c1.1,0,2,0.9,2,2l0,0c0,1.1-0.9,2-2,2l0,0
		C14.4,12,13.5,11.1,13.5,10z M5.8,10c0-1.1,0.9-2,2-2l0,0c1.1,0,2,0.9,2,2l0,0c0,1.1-0.9,2-2,2l0,0C6.6,12,5.8,11.1,5.8,10z"/>
	<path id="XMLID_6_" class="st0" d="M122.2,10c0-1.1,0.9-2,2-2l0,0c1.1,0,2,0.9,2,2l0,0c0,1.1-0.9,2-2,2l0,0
		C123.1,12,122.2,11.1,122.2,10z M114.5,10c0-1.1,0.9-2,2-2l0,0c1.1,0,2,0.9,2,2l0,0c0,1.1-0.9,2-2,2l0,0
		C115.4,12,114.5,11.1,114.5,10z M106.7,10c0-1.1,0.9-2,2-2l0,0c1.1,0,2,0.9,2,2l0,0c0,1.1-0.9,2-2,2l0,0
		C107.6,12,106.7,11.1,106.7,10z M98.9,10c0-1.1,0.9-2,2-2l0,0c1.1,0,2,0.9,2,2l0,0c0,1.1-0.9,2-2,2l0,0C99.8,12,98.9,11.1,98.9,10z
		 M91.2,10c0-1.1,0.9-2,2-2l0,0c1.1,0,2,0.9,2,2l0,0c0,1.1-0.9,2-2,2l0,0C92.1,12,91.2,11.1,91.2,10z M83.4,10c0-1.1,0.9-2,2-2l0,0
		c1.1,0,2,0.9,2,2l0,0c0,1.1-0.9,2-2,2l0,0C84.3,12,83.4,11.1,83.4,10z M75.6,10c0-1.1,0.9-2,2-2l0,0c1.1,0,2,0.9,2,2l0,0
		c0,1.1-0.9,2-2,2l0,0C76.5,12,75.6,11.1,75.6,10z M67.9,10c0-1.1,0.9-2,2-2l0,0c1.1,0,2,0.9,2,2l0,0c0,1.1-0.9,2-2,2l0,0
		C68.8,12,67.9,11.1,67.9,10z M60.1,10c0-1.1,0.9-2,2-2l0,0c1.1,0,2,0.9,2,2l0,0c0,1.1-0.9,2-2,2l0,0C61,12,60.1,11.1,60.1,10z
		 M52.3,10c0-1.1,0.9-2,2-2l0,0c1.1,0,2,0.9,2,2l0,0c0,1.1-0.9,2-2,2l0,0C53.2,12,52.3,11.1,52.3,10z M44.6,10c0-1.1,0.9-2,2-2l0,0
		c1.1,0,2,0.9,2,2l0,0c0,1.1-0.9,2-2,2l0,0C45.5,12,44.6,11.1,44.6,10z M36.8,10c0-1.1,0.9-2,2-2l0,0c1.1,0,2,0.9,2,2l0,0
		c0,1.1-0.9,2-2,2l0,0C37.7,12,36.8,11.1,36.8,10z M29,10c0-1.1,0.9-2,2-2l0,0c1.1,0,2,0.9,2,2l0,0c0,1.1-0.9,2-2,2l0,0
		C29.9,12,29,11.1,29,10z M21.3,10c0-1.1,0.9-2,2-2l0,0c1.1,0,2,0.9,2,2l0,0c0,1.1-0.9,2-2,2l0,0C22.2,12,21.3,11.1,21.3,10z"/>
</g>
<g id="XMLID_2_">
	<path id="XMLID_22_" class="st0" d="M149.6,10.2c-0.1,0.3-0.2,0.7-0.5,0.9c-0.3,0.3-0.7,0.4-1.1,0.4c-1.7,0-3.4,0-5,0
		c-0.1,0-0.2,0-0.3,0.2c-1.5,2.5-3.1,5-4.7,7.5c-0.1,0.1-0.2,0.2-0.3,0.2c-0.6,0-1.1,0-1.7,0c0.8-2.6,1.6-5.2,2.4-7.8
		c-0.1,0-0.2,0-0.2,0c-1.7,0-3.3,0-5,0c-0.1,0-0.2,0-0.3,0.1c-0.4,0.6-0.8,1.1-1.3,1.7c-0.1,0.1-0.1,0.1-0.3,0.1c-0.4,0-0.8,0-1.3,0
		c0.1-0.5,0.3-1,0.4-1.5c0.2-0.6,0.3-1.2,0.5-1.7c0-0.1,0-0.2,0-0.3c-0.3-1-0.6-2-0.9-3.1c0-0.1,0-0.1-0.1-0.2c0.5,0,0.9,0,1.4,0
		c0.1,0,0.1,0.1,0.2,0.1c0.4,0.6,0.8,1.1,1.3,1.7c0,0.1,0.1,0.1,0.2,0.1c1.7,0,3.4,0,5.1,0c0,0,0.1,0,0.1,0
		c-0.8-2.6-1.6-5.2-2.4-7.8c0.6,0,1.3,0,1.9,0c0.1,0,0.1,0.1,0.2,0.1c1,1.6,2.1,3.3,3.1,4.9c0.5,0.9,1.1,1.7,1.6,2.6
		c0.1,0.1,0.1,0.2,0.3,0.2c1.7,0,3.4,0,5.1,0c0.5,0,1,0.2,1.3,0.6c0.1,0.2,0.2,0.4,0.3,0.7C149.6,9.9,149.6,10.1,149.6,10.2z"/>
</g>
</svg>
