<?xml version="1.0" encoding="utf-8"?>
<!-- Generator: Adobe Illustrator 19.0.0, SVG Export Plug-In . SVG Version: 6.00 Build 0)  -->
<svg version="1.1" id="Layer_1" xmlns="http://www.w3.org/2000/svg" xmlns:xlink="http://www.w3.org/1999/xlink" x="0px" y="0px"
	 viewBox="0 66 150 20" style="enable-background:new 0 66 150 20;" xml:space="preserve">
<g id="XMLID_4_">
	<path id="XMLID_8_" style="fill:#9F9F9F;" d="M7.8,78c-0.5,0-1-0.2-1.4-0.6S5.8,76.5,5.8,76s0.2-1,0.6-1.4c0.7-0.8,2.1-0.8,2.8,0
		C9.5,75,9.8,75.5,9.8,76s-0.2,1-0.6,1.4C8.8,77.8,8.3,78,7.8,78z"/>
	<path id="XMLID_7_" style="fill:#9F9F9F;" d="M13.5,76c0-1.1,0.9-2,2-2l0,0c1.1,0,2,0.9,2,2l0,0c0,1.1-0.9,2-2,2l0,0
		C14.4,78,13.5,77.1,13.5,76z M5.8,76c0-1.1,0.9-2,2-2l0,0c1.1,0,2,0.9,2,2l0,0c0,1.1-0.9,2-2,2l0,0C6.6,78,5.8,77.1,5.8,76z"/>
	<path id="XMLID_6_" style="fill:#9F9F9F;" d="M122.2,76c0-1.1,0.9-2,2-2l0,0c1.1,0,2,0.9,2,2l0,0c0,1.1-0.9,2-2,2l0,0
		C123.1,78,122.2,77.1,122.2,76z M114.5,76c0-1.1,0.9-2,2-2l0,0c1.1,0,2,0.9,2,2l0,0c0,1.1-0.9,2-2,2l0,0
		C115.4,78,114.5,77.1,114.5,76z M106.7,76c0-1.1,0.9-2,2-2l0,0c1.1,0,2,0.9,2,2l0,0c0,1.1-0.9,2-2,2l0,0
		C107.6,78,106.7,77.1,106.7,76z M98.9,76c0-1.1,0.9-2,2-2l0,0c1.1,0,2,0.9,2,2l0,0c0,1.1-0.9,2-2,2l0,0C99.8,78,98.9,77.1,98.9,76z
		 M91.2,76c0-1.1,0.9-2,2-2l0,0c1.1,0,2,0.9,2,2l0,0c0,1.1-0.9,2-2,2l0,0C92.1,78,91.2,77.1,91.2,76z M83.4,76c0-1.1,0.9-2,2-2l0,0
		c1.1,0,2,0.9,2,2l0,0c0,1.1-0.9,2-2,2l0,0C84.3,78,83.4,77.1,83.4,76z M75.6,76c0-1.1,0.9-2,2-2l0,0c1.1,0,2,0.9,2,2l0,0
		c0,1.1-0.9,2-2,2l0,0C76.5,78,75.6,77.1,75.6,76z M67.9,76c0-1.1,0.9-2,2-2l0,0c1.1,0,2,0.9,2,2l0,0c0,1.1-0.9,2-2,2l0,0
		C68.8,78,67.9,77.1,67.9,76z M60.1,76c0-1.1,0.9-2,2-2l0,0c1.1,0,2,0.9,2,2l0,0c0,1.1-0.9,2-2,2l0,0C61,78,60.1,77.1,60.1,76z
		 M52.3,76c0-1.1,0.9-2,2-2l0,0c1.1,0,2,0.9,2,2l0,0c0,1.1-0.9,2-2,2l0,0C53.2,78,52.3,77.1,52.3,76z M44.6,76c0-1.1,0.9-2,2-2l0,0
		c1.1,0,2,0.9,2,2l0,0c0,1.1-0.9,2-2,2l0,0C45.5,78,44.6,77.1,44.6,76z M36.8,76c0-1.1,0.9-2,2-2l0,0c1.1,0,2,0.9,2,2l0,0
		c0,1.1-0.9,2-2,2l0,0C37.7,78,36.8,77.1,36.8,76z M29,76c0-1.1,0.9-2,2-2l0,0c1.1,0,2,0.9,2,2l0,0c0,1.1-0.9,2-2,2l0,0
		C29.9,78,29,77.1,29,76z M21.3,76c0-1.1,0.9-2,2-2l0,0c1.1,0,2,0.9,2,2l0,0c0,1.1-0.9,2-2,2l0,0C22.2,78,21.3,77.1,21.3,76z"/>
</g>
<g id="XMLID_2_">
	<path id="XMLID_22_" style="fill:#9F9F9F;" d="M149.6,76.2c-0.1,0.3-0.2,0.7-0.5,0.9c-0.3,0.3-0.7,0.4-1.1,0.4c-1.7,0-3.4,0-5,0
		c-0.1,0-0.2,0-0.3,0.2c-1.5,2.5-3.1,5-4.7,7.5c-0.1,0.1-0.2,0.2-0.3,0.2c-0.6,0-1.1,0-1.7,0c0.8-2.6,1.6-5.2,2.4-7.8
		c-0.1,0-0.2,0-0.2,0c-1.7,0-3.3,0-5,0c-0.1,0-0.2,0-0.3,0.1c-0.4,0.6-0.8,1.1-1.3,1.7c-0.1,0.1-0.1,0.1-0.3,0.1c-0.4,0-0.8,0-1.3,0
		c0.1-0.5,0.3-1,0.4-1.5c0.2-0.6,0.3-1.2,0.5-1.7c0-0.1,0-0.2,0-0.3c-0.3-1-0.6-2-0.9-3.1c0-0.1,0-0.1-0.1-0.2c0.5,0,0.9,0,1.4,0
		c0.1,0,0.1,0.1,0.2,0.1c0.4,0.6,0.8,1.1,1.3,1.7c0,0.1,0.1,0.1,0.2,0.1c1.7,0,3.4,0,5.1,0h0.1c-0.8-2.6-1.6-5.2-2.4-7.8
		c0.6,0,1.3,0,1.9,0c0.1,0,0.1,0.1,0.2,0.1c1,1.6,2.1,3.3,3.1,4.9c0.5,0.9,1.1,1.7,1.6,2.6c0.1,0.1,0.1,0.2,0.3,0.2
		c1.7,0,3.4,0,5.1,0c0.5,0,1,0.2,1.3,0.6c0.1,0.2,0.2,0.4,0.3,0.7C149.6,75.9,149.6,76.1,149.6,76.2z"/>
</g>
</svg>
