<?xml version="1.0" encoding="utf-8"?>
<!-- Generator: Adobe Illustrator 19.0.0, SVG Export Plug-In . SVG Version: 6.00 Build 0)  -->
<svg version="1.1" id="Layer_1" xmlns="http://www.w3.org/2000/svg" xmlns:xlink="http://www.w3.org/1999/xlink" x="0px" y="0px"
	 viewBox="228 -217 475 452" style="enable-background:new 228 -217 475 452;" xml:space="preserve">
<g id="XMLID_93_">
	<g id="XMLID_371_">
		<g id="XMLID_12_">
			
				<linearGradient id="XMLID_2_" gradientUnits="userSpaceOnUse" x1="227.8" y1="-424" x2="703.3" y2="-424" gradientTransform="matrix(1 0 0 1 0 433)">
				<stop  offset="0" style="stop-color:#FF9966"/>
				<stop  offset="0.1478" style="stop-color:#FF8B65"/>
				<stop  offset="0.468" style="stop-color:#FF7263"/>
				<stop  offset="0.7611" style="stop-color:#FF6362"/>
				<stop  offset="1" style="stop-color:#FF5E62"/>
			</linearGradient>
			<rect id="XMLID_18_" x="227.8" y="-217" style="fill:url(#XMLID_2_);" width="475.5" height="452"/>
		</g>
	</g>
	<path id="XMLID_62_" style="opacity:0.1;fill:#353535;enable-background:new    ;" d="M469.5,170.8h-7.9
		c-89.3,0-161.8-72.4-161.8-161.8l0,0c0-89.3,72.4-161.8,161.8-161.8h7.9c89.3,0,161.8,72.4,161.8,161.8l0,0
		C631.2,98.3,558.8,170.8,469.5,170.8z"/>
	<g id="XMLID_117_">
		<path id="XMLID_120_" style="fill:#FFFFFF;" d="M521.3-10.2c0.6-1.1,1.2-1.8,1.3-2.6c0.2-1.3,0.5-3,0-4c-0.8-1.6-2.5-1.4-4.1-0.7
			c-15.4,6.1-30.8,12.4-46.3,18.2c-4.5,1.7-7.5,4-8.4,8.7c-0.7,3.7-3.1,5.4-6.6,6.7c-12.8,4.7-25.6,9.5-38.2,14.7
			c-11.1,4.7-20.8,2.3-29.8-4.8c-11.9-9.5-23.7-19.2-35.5-28.8c-2.7-2.2-5.4-4.4-8.1-6.6c12.8-6.7,25.1-7.5,37.2,1.4
			c8,5.8,16.3,11.2,24.3,16.9c2.3,1.7,4.2,1.5,6.6,0.3C451.8-9.6,490-28.3,528.1-47.2c16.2-8,32.9-9.4,50.1-3.8
			c4,1.3,6.6,3.9,7.1,8.1c0.6,4.1-1.3,7.5-5.2,9.7c-19.1,7.6-38.2,15.1-57.3,22.7C522.5-10.5,522.1-10.5,521.3-10.2z"/>
		<path id="XMLID_119_" style="fill:#FFFFFF;" d="M512.9-8.5c-3.1,5.4-6,10.4-8.9,15.4c-12.2,21.1-24.4,42.2-36.6,63.3
			c-0.9,1.6-1.9,2.3-3.8,2.2c-5.5-0.1-11.1,0-17,0c0.4-1,0.6-1.8,0.9-2.6c7.5-19.9,15.1-39.9,22.7-59.8c0.4-1.1,1.4-2.3,2.4-2.7
			C485.4,2.1,498.3-2.9,511.1-8C511.5-8.2,512-8.2,512.9-8.5z"/>
		<path id="XMLID_118_" style="fill:#FFFFFF;" d="M486.1-33.6c-2,1-3.9,2-5.9,3c-5.3,2.6-10.5,5.3-15.8,7.7c-0.9,0.4-2.4,0.5-3.2,0
			c-11.8-7.5-23.4-15-35.1-22.6c-0.3-0.2-0.6-0.5-1.1-0.9c3.2-1.9,6.2-3.8,9.2-5.5c0.6-0.4,1.7-0.5,2.4-0.2
			c16.5,6,32.9,12.1,49.3,18.2C485.9-34,485.9-33.9,486.1-33.6z"/>
	</g>
</g>
</svg>
