<?xml version="1.0" encoding="utf-8"?>
<!-- Generator: Adobe Illustrator 19.0.0, SVG Export Plug-In . SVG Version: 6.00 Build 0)  -->
<svg version="1.1" id="Layer_1" xmlns="http://www.w3.org/2000/svg" xmlns:xlink="http://www.w3.org/1999/xlink" x="0px" y="0px"
	 viewBox="228 -217 475 452" style="enable-background:new 228 -217 475 452;" xml:space="preserve">
<g id="XMLID_5_">
	<g id="XMLID_128_">
		<g id="XMLID_15_">
			
				<linearGradient id="XMLID_2_" gradientUnits="userSpaceOnUse" x1="228" y1="-424" x2="703" y2="-424" gradientTransform="matrix(1 0 0 1 0 433)">
				<stop  offset="0" style="stop-color:#FFC617"/>
				<stop  offset="0.0473" style="stop-color:#FDBF1F"/>
				<stop  offset="0.199" style="stop-color:#F8AE32"/>
				<stop  offset="0.3751" style="stop-color:#F5A240"/>
				<stop  offset="0.5955" style="stop-color:#F39B48"/>
				<stop  offset="1" style="stop-color:#F2994A"/>
			</linearGradient>
			<path id="XMLID_21_" style="fill:url(#XMLID_2_);" d="M702.6,234.8H228.4c-0.2,0-0.4-0.2-0.4-0.4v-450.8c0-0.2,0.2-0.4,0.4-0.4
				h474.2c0.2,0,0.4,0.2,0.4,0.4v450.8C703,234.6,702.8,234.8,702.6,234.8z"/>
		</g>
	</g>
	<path id="XMLID_127_" style="opacity:0.1;fill:#353535;enable-background:new    ;" d="M465.5,170.9L465.5,170.9
		c-89.4,0-161.9-72.5-161.9-161.9l0,0c0-89.4,72.5-161.9,161.9-161.9l0,0c89.4,0,161.9,72.5,161.9,161.9l0,0
		C627.4,98.4,554.9,170.9,465.5,170.9z"/>
	<g id="XMLID_1062_">
		<path id="XMLID_1092_" style="fill:#FFFFFF;" d="M523.2-95.7c2.9,1.1,5.8,2.3,8.7,3.4c0.8,0.3,1.5,0.6,2.5,1
			c-0.9,2.6-1.8,5.2-2.8,7.9c19.4,9.7,31.8,25,37,46c3.7,15.4,1.4,30.3-4.9,44.9c-2.8-1.5-5.6-3-8.4-4.5
			c-9.4-5.1-19.4-8.5-29.9-10.7c-1.4-0.3-2.7-1.1-3.9-1.9c-4.4-2.9-8.7-6-13.4-9.2c-9.3,25.5-18.3,50.3-27.5,75.5
			c12.9,1.2,25.3,3.7,37.4,7.6c12.1,3.9,23.7,9.2,34.5,15.7c-4.5,2.8-8.8,5.8-13.3,8.3c-2.7,1.5-5.7,1.3-8.4-0.4
			c-2.8-1.8-5.5-3.9-8.4-5.4c-15.8-8.1-31.4-7.6-46.7,1.7c-1.7,1-3.3,2.2-4.9,3.3c-3.5,2.3-7,2.3-10.5,0c-4.7-3.2-9.3-6.5-14.8-8.2
			c-13.8-4.3-27-3.1-39.4,4.7c-1.8,1.1-3.5,2.4-5.3,3.5c-3.4,2.2-6.8,2.2-10.1,0c-4-2.6-8-5.1-12-7.6c9.3-5.6,19.2-10.3,29.5-14
			c18.7-6.7,37.9-10,57.7-9.9c1.2,0,2-0.2,2.4-1.5c9.2-25.5,18.5-50.9,27.8-76.4c0-0.1,0.1-0.3,0.2-0.8c-2.1-0.4-4.2-0.9-6.3-1.2
			c-2.1-0.3-4.2-0.7-6.3-0.6c-3.7,0.2-7-0.8-10.3-2.6c-11.1-6.1-23.1-9.3-35.4-11.4c-0.3,0-0.5-0.1-0.8-0.2
			c6.4-28,38.1-59.7,82.9-49.2c0.9-2.6,1.9-5.3,2.8-8C522.9-95.7,523.1-95.7,523.2-95.7z"/>
		<path id="XMLID_1091_" style="fill:#FFFFFF;" d="M360.7,89.3c6.5-0.2,12.4,1.5,17.8,5c1.8,1.1,3.5,2.4,5.3,3.5
			c7.3,4.9,16.5,4.9,23.8-0.1c4.7-3.2,9.4-6.6,15.2-7.7c9.3-1.8,18.1-0.8,26.2,4.6c3.5,2.4,6.9,5.2,11.2,6.2
			c6.2,1.3,12,0.6,17.4-3.1c4.7-3.3,9.4-6.6,15.2-7.7c9.2-1.8,17.9-0.8,25.8,4.6c1.6,1.1,3.3,2.2,4.9,3.3c7.2,4.8,16.5,4.8,23.6,0
			c4.9-3.3,9.6-6.8,15.6-7.9c2.4-0.4,4.8-0.6,7.4-0.9c0,4.3,0,8.2,0,12.1c-0.1,0.1-0.2,0.2-0.3,0.2c-6-0.2-10.6,2.9-15.2,6.2
			c-8.6,6.2-18.2,7.6-28.2,4.9c-4-1.1-7.6-3.6-11.3-5.5c-3.3-1.7-6.5-4-10-4.9c-5.9-1.6-11.6-0.5-16.7,3.1
			c-4.6,3.2-9.1,6.5-14.8,7.6c-9.5,2-18.4,0.9-26.6-4.6c-1.4-0.9-2.8-1.8-4.1-2.8c-6.9-5.3-17.7-5.2-24.7-0.1
			c-4.4,3.3-9.1,6.4-14.6,7.5c-9.4,1.9-18.3,0.9-26.4-4.6c-2.3-1.5-4.5-3-6.9-4.4c-2.9-1.8-6.2-2.4-9.6-2.2
			C360.7,97.4,360.7,93.4,360.7,89.3z"/>
		<path id="XMLID_1088_" style="fill:#FFFFFF;" d="M367-14.9c5.7,0,11.2,0,16.6,0c0-5.4,0-10.9,0-16.6c4.7,2.9,9.3,5.9,14.2,8.9
			c2.7-5,5.2-9.9,8-15.1c2.7,5.2,5.3,10,8,15.1c4.8-3,9.5-5.9,14.2-8.9c0,5.6,0,11.1,0,16.6c5.3,0,10.8,0,16.6,0
			c-2.9,4.6-5.8,9.3-8.9,14.2c4.9,2.6,9.8,5.2,15.1,8c-5.2,2.8-10.1,5.4-15.1,8c3,4.8,6,9.5,8.9,14.2c-5.7,0-11.1,0-16.6,0
			c0,5.3,0,10.9,0,16.6c-4.7-2.9-9.4-5.9-14.2-8.9c-2.7,5-5.2,9.9-8,15.1c-2.8-5.2-5.3-10.1-8-15.1c-4.8,3-9.4,5.9-14.2,8.9
			c0-5.7,0-11.2,0-16.6c-5.4,0-10.8,0-16.6,0c2.9-4.6,5.9-9.3,8.9-14.2c-5-2.6-9.9-5.2-15.1-8c5.2-2.7,10-5.3,15.1-8
			C372.9-5.5,369.9-10.2,367-14.9z M383.2,7.2c0,12.4,10,22.5,22.5,22.6c12.3,0.1,22.5-10.1,22.6-22.5c0-12.4-10-22.5-22.5-22.5
			S383.2-5.2,383.2,7.2z"/>
	</g>
</g>
</svg>
