<?xml version="1.0" encoding="utf-8"?>
<!-- Generator: Adobe Illustrator 19.0.0, SVG Export Plug-In . SVG Version: 6.00 Build 0)  -->
<svg version="1.1" id="Layer_1" xmlns="http://www.w3.org/2000/svg" xmlns:xlink="http://www.w3.org/1999/xlink" x="0px" y="0px"
	 viewBox="206 -194 475 452" style="enable-background:new 206 -194 475 452;" xml:space="preserve">
<g id="XMLID_121_">
	<g id="XMLID_12_">
		
			<linearGradient id="XMLID_2_" gradientUnits="userSpaceOnUse" x1="206" y1="-355.9" x2="681" y2="-355.9" gradientTransform="matrix(1 0 0 1 0 388)">
			<stop  offset="0" style="stop-color:#8F94FB"/>
			<stop  offset="0.1952" style="stop-color:#7B80EB"/>
			<stop  offset="0.4975" style="stop-color:#6268D8"/>
			<stop  offset="0.7743" style="stop-color:#5359CC"/>
			<stop  offset="1" style="stop-color:#4E54C8"/>
		</linearGradient>
		<rect id="XMLID_18_" x="206" y="-193.8" style="fill:url(#XMLID_2_);" width="475" height="451.8"/>
	</g>
</g>
<path id="XMLID_116_" style="opacity:0.1;fill:#353535;enable-background:new    ;" d="M443.5,193.9L443.5,193.9
	c-89.4,0-161.9-72.5-161.9-161.9l0,0c0-89.4,72.5-161.9,161.9-161.9l0,0c89.4,0,161.9,72.5,161.9,161.9l0,0
	C605.4,121.4,532.9,193.9,443.5,193.9z"/>
<g id="XMLID_207_">
	<path id="XMLID_464_" style="fill:#FFFFFF;" d="M403.1,132.5c-1.7-1-2.3-2.5-2.3-4.6c0-40.9,0-81.7,0-122.6
		C400.8-3.3,406.4-9,415-9c19,0,38,0,57.1,0c8.6,0,14.2,5.7,14.2,14.3c0,40.9,0,81.7,0,122.6c0,2-0.6,3.5-2.3,4.6
		c-6.5,0-13.1,0-19.6,0c-1.8-1-2.4-2.5-2.4-4.5c0.1-12,0-23.9,0-35.9c0-3.3-1.1-4.4-4.3-4.4c-9.3,0-18.7,0-28,0
		c-3.5,0-4.5,1.1-4.5,4.6c0,11.9,0,23.8,0,35.7c0,2.1-0.6,3.5-2.4,4.5C416.2,132.5,409.6,132.5,403.1,132.5z M443.5,24.9
		c-6.1,0-12.3,0-18.4,0c-2.7,0-4.2,1.2-4.2,3.3s1.5,3.4,4.2,3.4c12.3,0,24.5,0,36.8,0c2.6,0,4.2-1.3,4.2-3.3c0-2.1-1.5-3.3-4.2-3.3
		C455.8,24.9,449.6,24.9,443.5,24.9z M443.3,63.8c4.3,0,8.6,0,12.9,0c2.5,0,4-1.3,4-3.3c0-2-1.6-3.3-4-3.3c-8.5,0-17,0-25.5,0
		c-2.4,0-4,1.3-4,3.3c0,2,1.5,3.3,4,3.3C434.9,63.8,439.1,63.8,443.3,63.8z"/>
	<path id="XMLID_461_" style="fill:#FFFFFF;" d="M494.9,132.5c-1.4-1.1-2.1-2.4-2.1-4.3c0.1-28.2,0.1-56.4,0.1-84.6
		c0-4,0.9-4.9,5-4.9c5.2,0,10.3,0,15.5,0c8,0,13.8,5.7,13.8,13.7c0.1,22.1,0,44.2,0,66.3c0,6.8-3.8,11.6-10.4,13.4
		c-0.2,0.1-0.4,0.2-0.7,0.3C509,132.5,502,132.5,494.9,132.5z M504.2,79.3c0,2.3,0,4.6,0,6.9c0,2.2,1.3,3.6,3.3,3.6
		c1.9,0,3.4-1.3,3.4-3.5c0.1-4.6,0.1-9.3,0-13.9c0-2.1-1.6-3.5-3.5-3.4s-3.1,1.4-3.1,3.5C504.2,74.7,504.2,77,504.2,79.3z"/>
	<path id="XMLID_458_" style="fill:#FFFFFF;" d="M370.9,132.5c-0.2-0.1-0.4-0.3-0.7-0.3c-6.6-1.8-10.4-6.6-10.4-13.4
		c0-12.9,0-25.9,0-38.8c0-9,0-17.9,0-26.9c0-8.8,5.6-14.3,14.4-14.3c5.2,0,10.3,0,15.5,0c3.3,0,4.4,1.1,4.4,4.3
		c0,28.4,0,56.9,0.1,85.3c0,1.8-0.7,3.1-2.1,4.1C385,132.5,378,132.5,370.9,132.5z M382.8,79.3c0-2.3,0-4.6,0-6.9
		c-0.1-2.2-1.4-3.6-3.3-3.6c-1.9,0-3.3,1.4-3.3,3.6c-0.1,4.6-0.1,9.1,0,13.7c0,2.2,1.4,3.6,3.4,3.6s3.2-1.3,3.3-3.6
		C382.8,83.9,382.8,81.6,382.8,79.3z"/>
	<path id="XMLID_457_" style="fill:#FFFFFF;" d="M444.7-68.5c0.8,1.1,1.8,2,2.4,3.2c1.5,2.9,2.8,5.9,4.4,8.7c0.4,0.7,1.3,1.3,2,1.4
		c3.4,0.6,6.8,1.1,10.3,1.6c1.6,0.2,2.9,0.8,3.5,2.4c0.6,1.7-0.2,2.9-1.4,4c-2.4,2.4-4.8,4.8-7.3,7.1c-0.9,0.8-1.1,1.6-0.9,2.8
		c0.6,3.4,1.2,6.8,1.8,10.2c0.3,1.5,0.1,2.9-1.2,3.9c-1.3,1-2.7,0.8-4,0.1c-3.1-1.7-6.2-3.4-9.4-4.9c-0.7-0.3-1.9-0.3-2.6,0
		c-3.1,1.5-6,3.1-9,4.7c-1.5,0.8-2.9,1.2-4.4,0.1c-1.4-1.1-1.5-2.4-1.2-4.1c0.7-3.3,1.1-6.7,1.8-10c0.2-1.1,0-1.9-0.9-2.8
		c-2.5-2.4-5-4.8-7.5-7.2c-1.1-1.1-1.8-2.3-1.2-3.8c0.6-1.6,1.9-2.2,3.5-2.4c3.4-0.5,6.9-0.9,10.3-1.5c0.7-0.1,1.6-0.8,2-1.4
		c1.6-2.9,2.9-5.9,4.4-8.7c0.6-1.2,1.6-2.1,2.4-3.2C443.1-68.5,443.9-68.5,444.7-68.5z"/>
	<path id="XMLID_456_" style="fill:#FFFFFF;" d="M452.9,132.5c-6.3,0-12.6,0-18.8,0c-1.4-0.9-2.4-2.1-2.3-4c0-10.1,0-20.1,0-30.2
		c0-2.7,1.3-3.9,4-3.9c5,0,9.9,0,14.9,0c3.5,0,4.6,1.1,4.6,4.5c0,9.7,0,19.3,0,29C455.3,129.9,454.7,131.4,452.9,132.5z"/>
	<path id="XMLID_454_" style="fill:#FFFFFF;" d="M507.8-14c0.7-1.5-0.2-2.7-1.4-4c-1.9-1.9-0.9-4.9,1.8-5.4c1.8-0.3,2.8-1,3.6-2.6
		c1.3-2.5,4.4-2.4,5.8,0.1c0.8,1.4,1.7,2.2,3.3,2.5c3.2,0.6,4,3.5,1.7,5.8c-1,1-1.5,1.9-1.1,3.4c0.4,1.4,0,3-1.4,3.5
		c-1.1,0.4-2.6,0.6-3.6,0.1c-1.4-0.7-2.5-0.5-3.8,0.1C510-9.1,507.7-10.7,507.8-14z"/>
	<path id="XMLID_453_" style="fill:#FFFFFF;" d="M365.4-13.8c0.9-1.7-0.2-2.9-1.4-4.3c-1.8-2.1-0.8-4.8,2-5.3c1.7-0.3,2.7-1,3.5-2.6
		c1.3-2.5,4.5-2.5,5.8,0c0.8,1.4,1.6,2.2,3.3,2.5c3.2,0.6,4.1,3.5,1.8,5.8c-1.1,1.1-1.3,2.1-1.1,3.6c0.4,3.2-2.1,5-5,3.5
		c-1.4-0.7-2.4-0.7-3.8,0C367.8-9.1,365.3-10.7,365.4-13.8z"/>
	<path id="XMLID_452_" style="fill:#FFFFFF;" d="M484.9-44.9c2.1,0.4,3.1,1.4,3.7,2.8c0.5,1.2,1.2,1.8,2.4,1.9
		c1.5,0.1,2.8,0.7,3.3,2.3c0.6,1.6-0.3,2.8-1.2,4.1c-0.6,0.7-0.9,1.8-0.9,2.7c0,1.6,0.1,3-1.4,4c-1.4,1-2.8,0.5-4.3-0.2
		c-0.7-0.3-1.7-0.3-2.5,0c-1.5,0.6-2.9,1.2-4.4,0c-1.5-1.1-1.3-2.6-1.2-4.3c0.1-0.7-0.2-1.6-0.7-2.2c-1.1-1.2-2.1-2.3-1.5-4.1
		c0.6-1.7,1.8-2.3,3.5-2.4c1.2-0.1,1.7-0.7,2.3-1.7C482.8-43.2,484-44,484.9-44.9z"/>
	<path id="XMLID_451_" style="fill:#FFFFFF;" d="M408.6-30.5c0,2.9-2.4,4.6-4.7,3.4c-1.5-0.8-2.7-0.9-4.3-0.1
		c-2.6,1.3-5.1-0.5-4.8-3.5c0.2-1.6-0.1-2.7-1.3-4c-2.1-2.1-1.1-5.1,1.8-5.6c1.6-0.3,2.6-0.8,3.4-2.4c1.3-2.7,4.6-2.7,6,0.1
		c0.7,1.5,1.7,2,3.2,2.3c2.8,0.5,4,3.2,2.2,5.2C408.8-33.5,407.6-32.3,408.6-30.5z"/>
</g>
</svg>
