<?xml version="1.0" encoding="utf-8"?>
<!-- Generator: Adobe Illustrator 19.0.0, SVG Export Plug-In . SVG Version: 6.00 Build 0)  -->
<svg version="1.1" id="Layer_1" xmlns="http://www.w3.org/2000/svg" xmlns:xlink="http://www.w3.org/1999/xlink" x="0px" y="0px"
	 viewBox="228 -217 475 452" style="enable-background:new 228 -217 475 452;" xml:space="preserve">
<g id="XMLID_140_">
	<g id="XMLID_12_">
		
			<linearGradient id="XMLID_2_" gradientUnits="userSpaceOnUse" x1="228" y1="-424" x2="703" y2="-424" gradientTransform="matrix(1 0 0 1 0 433)">
			<stop  offset="0" style="stop-color:#FF9966"/>
			<stop  offset="0.1478" style="stop-color:#FF8B65"/>
			<stop  offset="0.468" style="stop-color:#FF7263"/>
			<stop  offset="0.7611" style="stop-color:#FF6362"/>
			<stop  offset="1" style="stop-color:#FF5E62"/>
		</linearGradient>
		<path id="XMLID_18_" style="fill:url(#XMLID_2_);" d="M702.6,234.8H228.4c-0.2,0-0.4-0.2-0.4-0.4v-450.8c0-0.2,0.2-0.4,0.4-0.4
			h474.2c0.2,0,0.4,0.2,0.4,0.4v450.8C703,234.6,702.8,234.8,702.6,234.8z"/>
	</g>
</g>
<path id="XMLID_139_" style="opacity:0.1;fill:#353535;enable-background:new    ;" d="M465.5,170.9L465.5,170.9
	c-89.4,0-161.9-72.5-161.9-161.9l0,0c0-89.4,72.5-161.9,161.9-161.9l0,0c89.4,0,161.9,72.5,161.9,161.9l0,0
	C627.4,98.4,554.9,170.9,465.5,170.9z"/>
<g id="XMLID_45_">
	<path id="XMLID_409_" style="fill:#FFFFFF;" d="M465.4,15.1c-0.6-0.6-1.1-1-1.6-1.5c-14.7-14.7-29.4-29.4-44.1-44.1
		c-8.1-8.1-10.7-17.9-7.6-28.8c3-10.4,10.1-17.2,20.6-19.9s19.8,0.1,27.6,7.6c5,4.8,5.2,4.9,10.1,0c11.4-11.2,29.4-11.4,40.7-0.4
		c11.4,11.2,11.9,29.3,0.6,40.8c-15.1,15.4-30.4,30.5-45.6,45.7C466,14.7,465.8,14.8,465.4,15.1z M476.3-26.7c3.5,0,6.7,0,9.9,0
		c3.3,0,4.6-1.3,4.6-4.5c0-4.2,0-8.4,0-12.6c0-3.3-1.3-4.6-4.7-4.6c-3.2,0-6.4,0-9.8,0c0-3.6,0-6.9,0-10.2c0-2.9-1.3-4.3-4.3-4.3
		c-4.2,0-8.4,0-12.6,0c-3.6,0-4.7,1.2-4.7,4.7c0,3.2,0,6.4,0,9.7c-3.3,0-6.3,0-9.3,0c-4,0-5.1,1.1-5.1,5s0,7.8,0,11.7
		c0,3.8,1.1,4.9,5,4.9c3.1,0,6.2,0,9.4,0c0,3.6,0,6.8,0,10.1c0,3.1,1.3,4.4,4.4,4.4c4.3,0,8.6,0,12.9,0c3.1,0,4.4-1.3,4.4-4.4
		C476.3-19.9,476.3-23.1,476.3-26.7z"/>
	<path id="XMLID_408_" style="fill:#FFFFFF;" d="M451,92.5c-12.1,0-24,0-36.2,0c0-2.3,0-4.5,0-6.7c0.1-6.3-2.3-11.4-7-15.5
		c-7.6-6.6-15.1-13.4-22.6-20.1c-2.2-2-3.7-4.3-4.4-7.1c-5-18.8-10.1-37.6-15.1-56.4c-0.4-1.5-0.6-3.3-0.3-4.9
		c0.6-3.1,3.3-5.2,6.2-5.3c3.5-0.2,6.5,1.9,7.7,5.4c2.5,7.7,5,15.4,7.5,23.2c0.6,1.9,1.1,3.9,1.9,5.8c1.3,3.3,1.7,6.3,0.4,9.9
		c-2.1,5.7,0.5,12.2,5.7,15.4c7,4.4,14.3,8.4,21.4,12.5c2,1.1,4.1,0.5,5-1.3c1-1.8,0.4-3.8-1.6-5c-6.6-3.9-13.3-7.7-19.9-11.5
		c-3.5-2-4.7-5.3-3.6-8.8c1.5-4.4,6.5-6.2,10.7-3.7c8.4,4.9,16.8,9.8,25.1,14.7c2.2,1.3,4.4,2.5,6.6,3.9c8,5,12.2,12.3,12.3,21.8
		C451.1,69.8,451,81.1,451,92.5z"/>
	<path id="XMLID_407_" style="fill:#FFFFFF;" d="M516.1,92.5c-12.2,0-24,0-36.1,0c0-0.6-0.1-1.1-0.1-1.6c0-10.8-0.1-21.5,0-32.3
		c0.1-9.3,4.2-16.8,12.2-21.6c10.5-6.4,21.3-12.5,31.9-18.8c2.7-1.6,5.5-1.6,8.1,0.2c2.5,1.7,3.3,4.2,3,7.1c-0.3,2.6-2,4.3-4.2,5.5
		c-6.4,3.7-12.8,7.3-19.1,11.1c-1,0.6-2.1,1.6-2.2,2.6c-0.2,1.1,0.3,2.7,1.1,3.6c1.1,1.3,2.8,1.1,4.3,0.3c4.9-2.9,9.9-5.7,14.9-8.6
		c2-1.1,3.9-2.2,5.8-3.4c6.2-3.9,8.4-11.4,5.6-18.2c-0.4-1-0.5-2.5-0.2-3.6C544.5,4,548-6.8,551.5-17.6c1.4-4.3,5.4-6.8,9.2-5.7
		c4,1.2,5.9,5,4.7,9.6c-5.1,19.1-10.2,38.2-15.4,57.3c-0.7,2.4-2.3,4.8-4.1,6.5c-7.4,6.9-15.1,13.6-22.7,20.3
		c-4.7,4.1-7.1,9.2-7,15.5C516.1,88,516.1,90.2,516.1,92.5z"/>
	<path id="XMLID_406_" style="fill:#FFFFFF;" d="M454.4,121.5c-14.4,0-28.6,0-43,0c0-7.1,0-14.2,0-21.5c14.3,0,28.6,0,43,0
		C454.4,107.2,454.4,114.3,454.4,121.5z"/>
	<path id="XMLID_405_" style="fill:#FFFFFF;" d="M519.6,121.5c-14.4,0-28.7,0-43.1,0c0-7.1,0-14.2,0-21.4c14.3,0,28.6,0,43.1,0
		C519.6,107.1,519.6,114.2,519.6,121.5z"/>
	<path id="XMLID_404_" style="fill:#FFFFFF;" d="M401.3,9.8c-1.7,0.5-3.1,0.9-4.7,1.4c-0.2-0.6-0.5-1.1-0.7-1.8
		c-2.9-9-6-17.9-8.7-27c-2.2-7.6-6.5-12.5-14.7-13.3c0-3.5,2.4-6.5,5.6-7c3.6-0.6,7.3,1.7,8.6,5.4c2.7,7.7,5.3,15.3,7.9,23
		C396.8-3.1,399,3.2,401.3,9.8z"/>
	<path id="XMLID_403_" style="fill:#FFFFFF;" d="M558.5-31.2c-2,0.6-4,1-5.9,1.8c-4.1,1.8-6.6,5-8,9.3c-3.2,9.8-6.3,19.6-9.5,29.4
		c-0.2,0.6-0.4,1.3-0.7,2c-1.6-0.5-3.1-0.9-4.8-1.4c1.6-4.7,3.2-9.2,4.8-13.8c3.3-9.6,6.6-19.2,10-28.7c1.2-3.5,4.2-5.5,7.8-5.3
		c3,0.2,5.7,2.7,6.3,5.9C558.6-31.8,558.5-31.4,558.5-31.2z"/>
	<path id="XMLID_398_" style="fill:#FFFFFF;" d="M469.2-19.6c-2.6,0-4.9,0-7.3,0c0-4.7,0-9.4,0-14.3c-4.9,0-9.5,0-14.4,0
		c0-2.5,0-4.8,0-7.3c4.7,0,9.4,0,14.2,0c0-4.9,0-9.5,0-14.4c2.5,0,4.8,0,7.3,0c0,4.7,0,9.4,0,14.2c4.9,0,9.5,0,14.4,0
		c0,2.5,0,4.8,0,7.3c-4.7,0-9.4,0-14.2,0C469.2-29.1,469.2-24.4,469.2-19.6z"/>
</g>
</svg>
