<?xml version="1.0" encoding="utf-8"?>
<!-- Generator: Adobe Illustrator 19.0.0, SVG Export Plug-In . SVG Version: 6.00 Build 0)  -->
<svg version="1.1" id="Layer_1" xmlns="http://www.w3.org/2000/svg" xmlns:xlink="http://www.w3.org/1999/xlink" x="0px" y="0px"
	 viewBox="451 -25 1201 201" style="enable-background:new 451 -25 1201 201;" xml:space="preserve">
<path id="XMLID_79_" style="fill:#F4F4F4;" d="M537.4-3.8c-5,0-17.7,4.5-17.7,4.5c-9.1,11.3-20.9,20-20.9,20
	c7.7,0.9,22.7,2.3,22.7,2.3C530.2,13.9,537.4-3.8,537.4-3.8"/>
<path id="XMLID_70_" style="fill:#F4F4F4;" d="M575.5,1.2c0,0-5.9-2.1-12.7-4.5c0,0-1.2,13.8-9.5,26.8l16.3-1.8
	C569.6,21.6,572.8,14.4,575.5,1.2"/>
<path id="XMLID_67_" style="fill:#F4F4F4;" d="M488.3,18.8c-4.2,4.3-7.8,9.1-11,14.3l21.6-12.3L488.3,18.8z"/>
<path id="XMLID_69_" style="fill:#F4F4F4;" d="M519.7,23.9c0,0-15.4,17.2-23.6,20c0,0,30.5,3,42.2,0c0,0,4.1-4.5,15-20.4
	C552.9,23,525.6,24.8,519.7,23.9"/>
<path id="XMLID_71_" style="fill:#F4F4F4;" d="M591.9,34c2.8-7.2,4.5-17.8,4.5-17.8c-12.7,3.8-26.8,5.4-26.8,5.4
	c-5.4,13.2-10.9,20-10.9,20C582.3,35.7,591.9,34,591.9,34"/>
<path id="XMLID_68_" style="fill:#F4F4F4;" d="M473.2,40.8c-2.8,6-4.9,12.3-6.1,19c5.5-2.7,24-11.1,28.2-15.6
	C495.2,44.2,481.4,42.5,473.2,40.8"/>
<path id="XMLID_72_" style="fill:#F4F4F4;" d="M558.5,41.9c0,0-8.8,15.7-35.1,41.4c0,0-29,0.2-39.9,0.2c0,0,31.6-11.9,54.7-39.6
	C538.2,43.9,552.1,43.9,558.5,41.9"/>
<path id="XMLID_66_" style="fill:#F4F4F4;" d="M466.1,82.5c0.3,3,0.8,6,1.4,8.9l15.6-7.7C483.1,83.8,471.8,83,466.1,82.5"/>
<path id="XMLID_75_" style="fill:#F4F4F4;" d="M611.4,29.2L592.3,34c-11.3,27.2-22.8,39-22.8,39c18.1-5.6,32.8-14.5,32.8-14.5
	S611.5,39.4,611.4,29.2"/>
<path id="XMLID_74_" style="fill:#F4F4F4;" d="M569.9,73.1c-11.8,5.9-46.5,10.3-46.5,10.3c-12.7,11.3-27.8,18.3-27.8,18.3
	c41.7-4.1,55.1-8.2,55.1-8.2C559.2,87.6,569.9,73.1,569.9,73.1"/>
<path id="XMLID_73_" style="fill:#F4F4F4;" d="M471,102.8c1.3,3.4,2.7,6.6,4.4,9.7c9.4-5,20-10.9,20-10.9L471,102.8z"/>
<path id="XMLID_64_" style="fill:#F4F4F4;" d="M485.4,127.3c2,2.2,4.1,4.4,6.2,6.4l13.7-8.1L485.4,127.3z"/>
<path id="XMLID_76_" style="fill:#F4F4F4;" d="M551,93.8c-25,22.2-45.4,31.8-45.4,31.8c32.2-4.5,60.8-14.5,60.8-14.5
	c8.6-6.8,25.9-30.9,25.9-30.9C578.3,87,551,93.8,551,93.8"/>
<path id="XMLID_77_" style="fill:#F4F4F4;" d="M534.6,138.2c-1,0.8-11.3,5.8-19,10.6c-3.5-1.4-6.9-3.2-10.1-5.1
	C505.4,143.7,517.2,142.3,534.6,138.2"/>
<path id="XMLID_78_" style="fill:#F4F4F4;" d="M626.2,74.5c0-13-3.2-25.2-8.6-36.1c-20.3,74.9-80,106-95.2,112.8
	c7.4,2.3,15.4,3.5,23.6,3.5C590.3,154.8,626.2,118.8,626.2,74.5"/>
<path id="XMLID_82_" style="fill:#F4F4F4;" d="M718.9,110.6V36.2c0-3.6,0.3-6.8,0.9-9.8s1.5-6,2.7-9H704c-3.3,0-5.8,0.1-7.4,0.3
	c-1.7,0.2-2.8,0.5-3.5,1c-0.9,0.6-1.9,1.9-2.9,3.9s-2,4.8-3.1,8.4c3.1,0.1,5.2,0.8,6.4,2s1.8,3.4,1.8,6.6v13.5
	c-2.6-2.5-5.3-4.3-8.3-5.5s-6.2-1.8-9.7-1.8c-9.2,0-16.6,3.7-22.1,11S647,74,647,86.5c0,13,2.6,23.3,7.9,30.8
	c5.3,7.6,12.4,11.4,21.3,11.4c4,0,7.7-0.8,11-2.3s6.2-3.8,8.6-6.8c0.7,3.2,1.7,5.4,3,6.5s3.7,1.6,7.3,1.6H722
	c-1.1-2-1.9-4.3-2.4-6.8C719.2,118.5,718.9,115,718.9,110.6z M696,91.1c0,7.7-1,13.4-2.9,17.3c-2,3.9-4.9,5.8-8.8,5.8
	c-4.2,0-7.4-2.2-9.4-6.7s-3-11.5-3-20.9c0-9.3,1-16.3,3.1-20.9c2.1-4.6,5.2-6.9,9.4-6.9c3.9,0,6.8,1.9,8.7,5.8
	c1.9,3.9,2.9,9.6,2.9,17.3V91.1z"/>
<path id="XMLID_83_" style="fill:#F4F4F4;" d="M805.1,118.7c-2.8-4.1-5.4-6.2-7.8-6.2c-1.3,0-3.7,0.5-7.2,1.4s-6.3,1.4-8.4,1.4
	c-4.3,0-8-1.2-11.1-3.7c-3.1-2.4-5.6-6.1-7.6-11l22.8-11.5c5-2.5,8.5-5,10.6-7.3c2-2.3,3.5-5.4,4.2-9.1c0-0.4,0.1-1,0.3-2
	c0.4-4.1,1.3-7.6,2.7-10.5c-0.4-0.3-1.1-0.8-2-1.6c-11.3-8.7-21-13-29-13c-5.2,0-10.1,1-14.7,3c-4.6,2-8.5,5-11.9,8.8
	c-3.5,4.1-6.1,8.6-7.8,13.7c-1.8,5.1-2.6,10.6-2.6,16.5c0,12.4,3.6,22.5,10.7,30.1c7.1,7.7,16.4,11.5,27.8,11.5
	c5.2,0,10.4-0.8,15.6-2.5s10.5-4.2,15.8-7.6L805.1,118.7z M759.2,82.9c-0.1-1-0.1-1.9-0.1-2.6c0-6.4,1.3-11.6,3.8-15.7
	c2.5-4,5.8-6,9.8-6c2.4,0,4.3,0.8,5.9,2.4c1.5,1.6,2.3,3.7,2.3,6.1c0,2.6-1,5.2-3.1,7.8c-2.1,2.6-5,4.7-8.6,6.5l-9.6,4.6
	C759.4,84.9,759.3,83.9,759.2,82.9z"/>
<path id="XMLID_59_" style="fill:#F4F4F4;" d="M824.7,47.2h21.5c-1.1,2.9-1.9,5.7-2.5,8.5s-0.9,5.5-0.9,8.1v39.9
	c0,3.8,0.5,6.4,1.6,7.6c1.1,1.3,3,2,5.9,2.3c-1.9,6.3-3.6,10.2-5.1,11.7s-4.1,2.3-7.9,2.3H816c1-3.1,1.8-6.1,2.4-8.8
	c0.5-2.8,0.8-5.3,0.8-7.7V71.2c0-4-0.5-6.6-1.5-7.8c-1-1.3-3-2-5.8-2.3c1.9-6.3,3.6-10.2,5-11.7C818.3,47.9,820.9,47.2,824.7,47.2"
	/>
<path id="XMLID_58_" style="fill:#F4F4F4;" d="M835.8,17.1h13.8l-4,12.3c-0.9,2.9-2.4,4.9-4.5,6.1c-2.1,1.2-5.1,1.8-9.1,1.8h-13.8
	l4-12.3c1-2.8,2.5-4.9,4.6-6.1C828.8,17.8,831.8,17.1,835.8,17.1"/>
<path id="XMLID_57_" style="fill:#F4F4F4;" d="M887.9,46.3c-0.3,3.8-0.6,7.3-0.7,10.4c-0.1,3.1-0.2,6.1-0.2,9
	c2.2-7.4,4.6-12.6,7.2-15.6c2.6-3,5.9-4.4,9.9-4.4c1,0,2.2,0,3.6,0.1c1.4,0,2.4,0.1,2.8,0.1c1,0,1.9,0,2.8-0.1
	c0.9-0.1,1.7-0.2,2.6-0.4c-0.8,5.3-1.6,9.2-2.3,11.7c-0.7,2.5-1.5,4.3-2.5,5.4c-1.5,1.7-4,2.8-7.6,3.3c-1,0.1-1.7,0.3-2.2,0.3
	c-3.7,0.7-6.4,2.1-8.1,4.2s-2.5,5.2-2.5,9.2v24.2c0,4.1,0.6,6.7,1.7,7.8c1.1,1.2,3.4,1.9,6.8,2.1c-2,6.4-3.7,10.4-5.1,11.8
	c-1.5,1.5-4,2.2-7.7,2.2h-23.5c1.4-3,2.4-5.9,3-8.6c0.7-2.7,1-5.4,1-7.9V69.8c0-3.4-0.5-5.6-1.4-6.5s-2.8-1.4-5.7-1.5
	c2-6.9,3.7-11.1,5.2-12.5s4.2-2.2,8.2-2.2c1.2,0,2.5,0,4.1,0.1c1.5,0,2.4,0.1,2.7,0.1c1.5,0,3-0.1,4.3-0.2
	C885.5,46.9,886.8,46.7,887.9,46.3"/>
<path id="XMLID_84_" style="fill:#F4F4F4;" d="M987.8,112c-1-1-1.5-3.8-1.5-8.3v-27c0-7-0.5-12.1-1.6-15.3c-1-3.2-2.8-5.9-5.3-8.1
	c-3-2.6-6.6-4.6-11-5.9s-9.6-1.9-15.5-1.9c-4.1,0-7.9,0.2-11.4,0.6s-6.2,1-8,1.7c-1.8,0.6-4.1,4.6-7,11.9l-0.5,1.4
	c3.3-1.1,6.7-2,10.1-2.6s6.8-0.9,10.1-0.9c6.6,0,11.3,1.3,14.1,3.9c2.7,2.6,4.1,7.1,4.1,13.6c0,1.2,0,2.1,0,2.7s-0.1,1.2-0.1,1.7
	c-1.7-3-4.1-5.3-7.1-6.9s-6.4-2.4-10.2-2.4c-8,0-14.4,2.6-19.3,7.9c-4.8,5.3-7.3,12.3-7.3,21.2s2.3,16.1,6.8,21.4
	c4.5,5.4,10.4,8.1,17.8,8.1c4.3,0,8.1-0.9,11.4-2.7s6.2-4.5,8.6-8.1v1.5c0,1.4-0.1,2.8-0.2,4.3c-0.1,1.5-0.3,3.1-0.5,4.6
	c1.3-0.3,2.7-0.6,4.2-0.7c1.5-0.2,3.1-0.2,4.8-0.2h5.1c5,0,8.5-1,10.6-2.9s3.7-5.6,4.9-11.1C990.7,113.6,988.8,113,987.8,112z
	 M961.6,110.5c-1.7,2.6-4.2,4-7.3,4c-3,0-5.5-1.4-7.4-4.2s-2.8-6.6-2.8-11.3s1-8.5,2.9-11.2c1.9-2.7,4.5-4.1,7.8-4.1
	c3.1,0,5.4,1.3,7,4c1.6,2.7,2.5,6.5,2.5,11.5C964.2,104.1,963.3,107.8,961.6,110.5z"/>
<path id="XMLID_54_" style="fill:#F4F4F4;" d="M1016.4,28.8c5.5-1.3,10.6-3.3,15.5-5.9v24.5h6.4c2.2,0,4.2-0.2,6-0.6
	s3.5-1.1,5.1-2.2c-1.7,7-3.4,11.4-5.1,13.4s-4.3,3-7.9,3h-4.6v43.6c0,3.8,0.5,6.5,1.4,8.2s2.4,2.5,4.5,2.5c1,0,2.3-0.4,3.8-1.1
	c1.5-0.8,2.5-1.1,3-1.1c1.4,0,3.2,1.6,5.4,4.9c0.5,0.8,0.9,1.4,1.2,1.8c-4.1,3.3-8.1,5.8-11.8,7.3c-3.7,1.6-7.4,2.4-11.1,2.4
	c-7,0-12-2-15.2-6.1s-4.8-10.5-4.8-19.4V61h-3.3c-1.1,0-2.4,0.2-3.9,0.6c-1.4,0.4-3,1-4.7,1.8c1.2-6.4,2.7-10.6,4.3-12.8
	c1.6-2.1,4.1-3.2,7.3-3.2h1.5v-7.1c0-3.6,0.4-6.1,1.1-7.4c0.7-1.3,2.1-2.5,4.1-3.6C1014.9,29.2,1015.4,29,1016.4,28.8"/>
<path id="XMLID_53_" style="fill:#F4F4F4;" d="M1083.1,46.3c-0.3,3.8-0.6,7.3-0.7,10.4c-0.2,3.1-0.2,6.1-0.2,9
	c2.2-7.4,4.6-12.6,7.2-15.6c2.6-3,5.9-4.4,9.9-4.4c1,0,2.2,0,3.6,0.1c1.4,0,2.4,0.1,2.8,0.1c1,0,1.9,0,2.8-0.1
	c0.9-0.1,1.7-0.2,2.6-0.4c-0.8,5.3-1.6,9.2-2.3,11.7s-1.5,4.3-2.5,5.4c-1.5,1.7-4,2.8-7.6,3.3c-1,0.1-1.7,0.3-2.2,0.3
	c-3.7,0.7-6.4,2.1-8.1,4.2s-2.5,5.2-2.5,9.2v24.2c0,4.1,0.6,6.7,1.7,7.8c1.1,1.2,3.4,1.9,6.8,2.1c-2,6.4-3.7,10.4-5.1,11.8
	c-1.5,1.5-4,2.2-7.7,2.2h-23.5c1.4-3,2.4-5.9,3-8.6c0.7-2.7,1-5.4,1-7.9V69.8c0-3.4-0.5-5.6-1.4-6.5s-2.8-1.4-5.7-1.5
	c2-6.9,3.7-11.1,5.2-12.5s4.2-2.2,8.2-2.2c1.2,0,2.5,0,4.1,0.1c1.5,0,2.4,0.1,2.7,0.1c1.5,0,3-0.1,4.3-0.2
	C1080.7,46.9,1081.9,46.7,1083.1,46.3"/>
<path id="XMLID_85_" style="fill:#F4F4F4;" d="M1182.9,112c-1-1-1.5-3.8-1.5-8.3v-27c0-7-0.5-12.1-1.6-15.3c-1-3.2-2.8-5.9-5.3-8.1
	c-3-2.6-6.6-4.6-11-5.9c-4.4-1.3-9.6-1.9-15.5-1.9c-4.1,0-7.9,0.2-11.4,0.6s-6.2,1-8,1.7c-1.8,0.6-4.1,4.6-7,11.9l-0.5,1.4
	c3.3-1.1,6.7-2,10.1-2.6c3.4-0.6,6.8-0.9,10.1-0.9c6.6,0,11.3,1.3,14.1,3.9c2.7,2.6,4.1,7.1,4.1,13.6c0,1.2,0,2.1,0,2.7
	s-0.1,1.2-0.1,1.7c-1.7-3-4.1-5.3-7.1-6.9s-6.4-2.4-10.2-2.4c-8,0-14.4,2.6-19.3,7.9c-4.9,5.3-7.3,12.3-7.3,21.2s2.3,16.1,6.8,21.4
	c4.5,5.4,10.5,8.1,17.8,8.1c4.3,0,8.1-0.9,11.4-2.7s6.2-4.5,8.6-8.1v1.5c0,1.4-0.1,2.8-0.2,4.3c-0.1,1.5-0.3,3.1-0.5,4.6
	c1.3-0.3,2.7-0.6,4.2-0.7c1.5-0.2,3.1-0.2,4.9-0.2h5.1c5,0,8.5-1,10.6-2.9s3.7-5.6,4.9-11.1C1185.8,113.6,1183.9,113,1182.9,112z
	 M1156.7,110.5c-1.7,2.6-4.2,4-7.3,4s-5.5-1.4-7.4-4.2s-2.8-6.6-2.8-11.3s1-8.5,2.9-11.2c1.9-2.7,4.5-4.1,7.8-4.1c3,0,5.4,1.3,7,4
	s2.5,6.5,2.5,11.5C1159.3,104.1,1158.4,107.8,1156.7,110.5z"/>
<path id="XMLID_50_" style="fill:#F4F4F4;" d="M1205.9,47.3l16.2,0.1c-0.3,0.9-0.6,1.7-0.7,2.5c-0.2,0.8-0.2,1.6-0.2,2.5
	c0,2,1.2,6.2,3.6,12.8c1.1,3.2,2,5.7,2.7,7.5l4.8,14c1.2,3.6,2.2,7,3,10.1c0.8,3.1,1.3,6.1,1.7,8.9c0.2-2.1,0.7-4.6,1.4-7.3
	c0.7-2.8,1.8-6.4,3.3-10.8l4.3-12.7c0.5-1.6,0.9-3,1.2-4.2c0.3-1.2,0.4-2.2,0.4-3.1c0-2.2-0.7-3.8-2.1-4.8c-1.4-1-4-1.6-7.8-1.9
	c2.5-5.9,4.8-9.6,6.7-11.1c1.9-1.5,5-2.3,9.4-2.3h17.2c-1.1,1.9-2.2,4-3.2,6.4c-1.1,2.3-2.2,5-3.3,8l-19.5,49.3
	c-1.5,3.9-2.7,6.7-3.4,8.4c-0.8,1.7-1.5,2.9-2.2,3.7c-1.4,1.6-3.4,3-5.9,4.1c-2.5,1.2-5.8,2.2-9.9,3.1c0.1-0.1,0.2-0.2,0.2-0.3
	s0.1-0.3,0.1-0.5c0-1.8-3.1-10.9-9.2-27.3c-2.2-5.9-3.9-10.5-5.2-13.9l-0.2-0.5c-6.6-17.7-12.6-26.8-18.2-27.3
	c2.6-6.2,4.8-10,6.5-11.4C1199.2,48,1202,47.3,1205.9,47.3"/>
<path id="XMLID_86_" style="fill:#F4F4F4;" d="M1344.1,118.7c-2.8-4.1-5.4-6.2-7.8-6.2c-1.3,0-3.7,0.5-7.2,1.4s-6.3,1.4-8.4,1.4
	c-4.3,0-8-1.2-11.1-3.7c-3.1-2.4-5.6-6.1-7.6-11l22.8-11.5c5-2.5,8.5-5,10.6-7.3c2-2.3,3.5-5.4,4.2-9.1c0-0.4,0.1-1,0.3-2
	c0.4-4.1,1.3-7.6,2.7-10.5c-0.4-0.3-1.1-0.8-2-1.6c-11.3-8.7-21-13-29-13c-5.2,0-10.1,1-14.7,3c-4.6,2-8.5,5-11.9,8.8
	c-3.5,4.1-6.1,8.6-7.8,13.7c-1.8,5.1-2.6,10.6-2.6,16.5c0,12.4,3.6,22.5,10.7,30.1c7.1,7.7,16.4,11.5,27.8,11.5
	c5.2,0,10.4-0.8,15.6-2.5s10.5-4.2,15.8-7.6L1344.1,118.7z M1298.3,83c-0.1-1-0.1-1.9-0.1-2.6c0-6.4,1.3-11.6,3.8-15.7
	c2.5-4,5.8-6,9.8-6c2.4,0,4.3,0.8,5.9,2.4c1.5,1.6,2.3,3.7,2.3,6.1c0,2.6-1,5.2-3.1,7.8c-2.1,2.6-5,4.7-8.6,6.5l-9.6,4.6
	C1298.5,85,1298.3,84,1298.3,83z"/>
<path id="XMLID_46_" style="fill:#F4F4F4;" d="M1364.2,17.1h21.5c-1.1,2.9-1.9,5.7-2.5,8.4c-0.6,2.8-0.9,5.5-0.9,8.1v69.9
	c0,3.8,0.5,6.4,1.6,7.6c1.1,1.2,3,2,5.9,2.3c-1.9,6.3-3.6,10.2-5.1,11.7s-4.1,2.3-7.9,2.3h-21.4c1-3.1,1.8-6.1,2.4-8.8
	c0.5-2.8,0.8-5.3,0.8-7.7v-70c0-3.9-0.5-6.5-1.5-7.7s-3-2-5.8-2.2c1.9-6.3,3.6-10.2,5-11.7C1357.8,17.9,1360.4,17.1,1364.2,17.1"/>
<path id="XMLID_45_" style="fill:#F4F4F4;" d="M1424.7,111.4l-3.1,9.7c-1.5,4.7-4.6,6.3-10.3,6.3h-10.5l3-9.7
	c1.5-4.7,4.6-6.3,10.3-6.3H1424.7z"/>
<path id="XMLID_44_" style="fill:#F4F4F4;" d="M1475.2,81.1c-1.1,0.7-3,1-5.8,1h-1.7c0.3-1,0.5-1.8,0.5-2.4c0-3-2.5-5.3-6.2-5.3
	c-6.6,0-10.7,7-10.7,20.3c0,15,5.1,23.2,12.7,23.2c4.5,0,7.5-3.3,10.4-3.3c1.5,0,3.7,1.5,6.3,3.9c-4.7,6.7-12,10.1-21.7,10.1
	c-15.5,0-26.8-12.3-26.8-31.3c0-19.7,11.1-32.2,27.6-32.2c8.1,0,15.1,2.1,21.7,6.4C1478.4,76.8,1476.6,80.2,1475.2,81.1"/>
<path id="XMLID_41_" style="fill:#F4F4F4;" d="M1538.8,96.8c0,20.1-10.5,31.7-27.3,31.7s-27.2-11.8-27.2-31.7
	c0-20.1,10.5-31.7,27.2-31.7C1528.3,65.1,1538.8,76.8,1538.8,96.8 M1503.2,96.8c0,14.3,2.5,21.3,8.4,21.3c5.7,0,8.3-7,8.3-21.3
	s-2.5-21.3-8.3-21.3C1505.9,75.5,1503.2,82.5,1503.2,96.8"/>
<path id="XMLID_1_" style="fill:#F4F4F4;" d="M1565.5,75.1c3.1-6.7,8.9-10.2,17-10.2c7.1,0,12.3,2.9,15.4,8.4
	c3.2-5.4,8.9-8.4,15.8-8.4c11.8,0,17.8,7,17.8,21v23.2c0,5.1,0.6,7.1,5.4,7.5c-2.7,8.9-3.5,10.6-9.4,10.6h-15.6
	c1.7-5.2,2.4-9.3,2.4-12.5v-30c0-6.7-2-9.9-6.7-9.9c-5.8,0-7.5,4.2-7.5,13.4v20.9c0,5.1,0.6,7.1,5.4,7.5c-2.7,8.9-3.5,10.6-9.4,10.6
	h-15.6c1.7-5.3,2.4-9.6,2.4-12.5v-30c0-6.7-2-9.9-6.7-9.9c-5.8,0-7.5,4.2-7.5,13.4v20.9c0,5.1,0.5,7,5.4,7.5
	c-2.7,8.9-3.5,10.6-9.4,10.6h-15.6c1.6-4.2,2.3-8.5,2.3-12.5V83.4c0-4.6-0.2-5.9-5.1-6c2.5-9.4,3.2-11.1,9.7-11.1
	c2.3,0,4,0.1,4.9,0.1c2.1,0,4.1-0.2,5.9-0.7C1566.3,68.8,1565.8,71.9,1565.5,75.1"/>
</svg>
