<?xml version="1.0" encoding="utf-8"?>
<!-- Generator: Adobe Illustrator 19.0.0, SVG Export Plug-In . SVG Version: 6.00 Build 0)  -->
<svg version="1.1" id="Layer_1" xmlns="http://www.w3.org/2000/svg" xmlns:xlink="http://www.w3.org/1999/xlink" x="0px" y="0px"
	 viewBox="0 0 1201 201" style="enable-background:new 0 0 1201 201;" xml:space="preserve">
<style type="text/css">
	.st0{fill:#3B62AB;}
	.st1{fill:#00A9EC;}
	.st2{fill:#1AABEC;}
	.st3{fill:#00A9EB;}
</style>
<g id="XMLID_1_">
	<path id="XMLID_38_" class="st0" d="M175.2,99.5c0-13-3.2-25.2-8.6-36.1c-20.3,74.9-80,106-95.2,112.8c7.4,2.3,15.4,3.5,23.6,3.5
		C139.3,179.8,175.2,143.8,175.2,99.5"/>
	<path id="XMLID_37_" class="st0" d="M83.6,163.2c-1,0.8-11.3,5.8-19,10.6c-3.5-1.4-6.9-3.2-10.1-5.1
		C54.4,168.7,66.2,167.3,83.6,163.2"/>
	<path id="XMLID_36_" class="st0" d="M100,118.8c-25,22.2-45.4,31.8-45.4,31.8c32.2-4.5,60.8-14.5,60.8-14.5
		c8.6-6.8,25.9-30.9,25.9-30.9C127.3,112,100,118.8,100,118.8"/>
	<path id="XMLID_35_" class="st0" d="M160.4,54.2L141.3,59c-11.3,27.2-22.8,39-22.8,39c18.1-5.6,32.8-14.5,32.8-14.5
		S160.5,64.4,160.4,54.2"/>
	<path id="XMLID_34_" class="st1" d="M118.9,98.1c-11.8,5.9-46.5,10.3-46.5,10.3c-12.7,11.3-27.8,18.3-27.8,18.3
		c41.7-4.1,55.1-8.2,55.1-8.2C108.2,112.6,118.9,98.1,118.9,98.1"/>
	<path id="XMLID_33_" class="st0" d="M19.9,127.8c1.3,3.4,2.7,6.6,4.4,9.7c9.4-5,20-10.9,20-10.9L19.9,127.8z"/>
	<path id="XMLID_32_" class="st0" d="M107.5,66.9c0,0-8.8,15.7-35.1,41.4c0,0-29,0.2-39.9,0.2c0,0,31.6-11.9,54.7-39.6
		C87.2,68.9,101.1,68.9,107.5,66.9"/>
	<path id="XMLID_31_" class="st1" d="M140.9,59c2.8-7.2,4.5-17.8,4.5-17.8c-12.7,3.8-26.8,5.4-26.8,5.4c-5.4,13.2-10.9,20-10.9,20
		C131.3,60.7,140.9,59,140.9,59"/>
	<path id="XMLID_30_" class="st0" d="M124.5,26.2c0,0-5.9-2.1-12.7-4.5c0,0-1.2,13.8-9.5,26.8l16.3-1.8
		C118.6,46.6,121.8,39.4,124.5,26.2"/>
	<path id="XMLID_29_" class="st1" d="M68.7,48.9c0,0-15.4,17.2-23.6,20c0,0,30.5,3,42.2,0c0,0,4.1-4.5,15-20.4
		C101.9,48,74.6,49.8,68.7,48.9"/>
	<path id="XMLID_28_" class="st0" d="M22.2,65.8c-2.8,6-4.9,12.3-6.1,19c5.5-2.7,24-11.1,28.2-15.6C44.2,69.2,30.4,67.5,22.2,65.8"
		/>
	<path id="XMLID_27_" class="st2" d="M37.3,43.8c-4.2,4.3-7.8,9.1-11,14.3l21.6-12.3L37.3,43.8z"/>
	<path id="XMLID_26_" class="st2" d="M15.1,107.5c0.3,3,0.8,6,1.4,8.9l15.6-7.7C32.1,108.8,20.8,108,15.1,107.5"/>
	<path id="XMLID_25_" class="st0" d="M86.4,21.2c-5,0-17.7,4.5-17.7,4.5c-9.1,11.3-20.9,20-20.9,20c7.7,0.9,22.7,2.3,22.7,2.3
		C79.2,38.9,86.4,21.2,86.4,21.2"/>
	<path id="XMLID_24_" class="st2" d="M34.5,152.3c2,2.2,4.1,4.4,6.2,6.4l13.7-8.1L34.5,152.3z"/>
	<path class="st0" d="M244.9,144.5c-2.4,3-5.3,5.3-8.6,6.8c-3.3,1.5-7,2.3-11,2.3c-8.9,0-16-3.8-21.3-11.4
		c-5.3-7.6-7.9-17.9-7.9-30.8c0-12.5,2.7-22.4,8.2-29.7c5.5-7.3,12.9-11,22.1-11c3.5,0,6.8,0.6,9.7,1.8c3,1.2,5.7,3.1,8.3,5.5V64.5
		c0-3.2-0.6-5.4-1.8-6.6c-1.2-1.2-3.3-1.9-6.4-2c1-3.6,2.1-6.3,3.1-8.4c1-2,2-3.3,2.9-3.9c0.6-0.5,1.8-0.8,3.5-1
		c1.7-0.2,4.2-0.3,7.4-0.3h18.5c-1.2,3.1-2.1,6.1-2.7,9c-0.6,3-0.9,6.2-0.9,9.8v74.4c0,4.5,0.2,7.9,0.7,10.5
		c0.5,2.5,1.3,4.8,2.4,6.8h-15.8c-3.6,0-6-0.5-7.3-1.6C246.6,149.9,245.6,147.7,244.9,144.5 M245,115.9v-9.2c0-7.6-1-13.4-2.9-17.3
		c-1.9-3.9-4.8-5.8-8.7-5.8c-4.2,0-7.3,2.3-9.4,6.9c-2.1,4.6-3.1,11.5-3.1,20.9c0,9.5,1,16.5,3,20.9c2,4.5,5.2,6.7,9.4,6.7
		c3.9,0,6.9-1.9,8.8-5.8C244,129.3,245,123.6,245,115.9 M350.5,83.6c1,0.7,1.6,1.3,2,1.6c-1.4,3-2.3,6.5-2.7,10.5
		c-0.1,1-0.2,1.6-0.3,2c-0.8,3.7-2.2,6.8-4.2,9.1c-2,2.3-5.6,4.8-10.6,7.3L312,125.6c2,4.9,4.5,8.6,7.6,11c3.1,2.4,6.8,3.7,11.1,3.7
		c2.1,0,5-0.5,8.4-1.4c3.5-0.9,5.9-1.4,7.2-1.4c2.4,0,5,2.1,7.8,6.2l0.3,0.5c-5.3,3.4-10.6,5.9-15.8,7.6c-5.2,1.7-10.5,2.5-15.6,2.5
		c-11.4,0-20.7-3.8-27.8-11.5c-7.1-7.6-10.7-17.7-10.7-30.1c0-6,0.9-11.5,2.6-16.5c1.8-5.1,4.4-9.6,7.8-13.7
		c3.4-3.9,7.3-6.8,11.9-8.8c4.6-2,9.4-3,14.7-3C329.6,70.6,339.2,75,350.5,83.6 M318.1,106.4c3.6-1.7,6.5-3.9,8.6-6.5
		c2.1-2.6,3.1-5.2,3.1-7.8c0-2.5-0.8-4.5-2.3-6.1c-1.5-1.6-3.5-2.4-5.9-2.4c-4,0-7.2,2-9.8,6c-2.6,4-3.8,9.3-3.8,15.7
		c0,0.8,0,1.7,0.1,2.6c0.1,1,0.2,2,0.4,3L318.1,106.4z M373.7,72.3h21.5c-1.1,2.9-1.9,5.7-2.5,8.5c-0.6,2.8-0.9,5.5-0.9,8.1v39.9
		c0,3.8,0.5,6.4,1.6,7.7c1.1,1.3,3,2,5.9,2.3c-1.9,6.3-3.6,10.2-5.1,11.7c-1.5,1.5-4.1,2.3-7.9,2.3H365c1-3.1,1.8-6.1,2.4-8.8
		c0.5-2.8,0.8-5.3,0.8-7.7V96.3c0-4-0.5-6.6-1.5-7.8c-1-1.3-3-2-5.8-2.3c1.9-6.3,3.6-10.2,5-11.7C367.3,73,369.9,72.3,373.7,72.3
		 M384.8,42.2h13.8l-4,12.3c-0.9,2.9-2.4,4.9-4.5,6.1c-2.1,1.2-5.1,1.8-9.1,1.8h-13.8l4-12.3c1-2.8,2.5-4.9,4.6-6.1
		C377.8,42.9,380.8,42.2,384.8,42.2 M436.9,71.3c-0.3,3.8-0.6,7.3-0.7,10.4s-0.2,6.1-0.2,9c2.2-7.4,4.6-12.6,7.2-15.6
		c2.6-3,5.9-4.4,9.9-4.4c1,0,2.2,0,3.6,0.1c1.4,0,2.4,0.1,2.8,0.1c1,0,1.9,0,2.8-0.1c0.9-0.1,1.7-0.2,2.6-0.4
		c-0.8,5.3-1.6,9.2-2.3,11.7c-0.7,2.5-1.5,4.3-2.5,5.4c-1.5,1.7-4,2.8-7.6,3.3c-1,0.1-1.7,0.3-2.2,0.3c-3.7,0.7-6.4,2.1-8.1,4.2
		c-1.7,2.1-2.5,5.2-2.5,9.2v24.2c0,4.1,0.6,6.7,1.7,7.8c1.1,1.2,3.4,1.9,6.8,2.1c-2,6.4-3.7,10.4-5.1,11.8c-1.5,1.5-4,2.2-7.7,2.2
		h-23.5c1.4-3,2.4-5.9,3-8.6c0.7-2.7,1-5.4,1-7.9V94.8c0-3.4-0.5-5.6-1.4-6.5c-0.9-0.9-2.8-1.4-5.7-1.5c2-6.9,3.7-11.1,5.2-12.5
		c1.5-1.4,4.2-2.2,8.2-2.2c1.2,0,2.5,0,4.1,0.1c1.5,0,2.4,0.1,2.7,0.1c1.5,0,3-0.1,4.3-0.2C434.5,71.9,435.8,71.7,436.9,71.3
		 M513.7,143.1c-2.4,3.6-5.3,6.3-8.6,8.1c-3.3,1.8-7.1,2.7-11.4,2.7c-7.4,0-13.3-2.7-17.8-8.1c-4.5-5.4-6.8-12.5-6.8-21.4
		c0-8.8,2.4-15.9,7.3-21.2c4.8-5.3,11.3-7.9,19.3-7.9c3.8,0,7.2,0.8,10.2,2.4c3,1.6,5.4,3.9,7.1,6.9c0-0.5,0.1-1.1,0.1-1.7
		c0-0.6,0-1.5,0-2.7c0-6.4-1.4-10.9-4.1-13.6c-2.7-2.6-7.4-3.9-14.1-3.9c-3.3,0-6.7,0.3-10.1,0.9c-3.4,0.6-6.8,1.5-10.1,2.6l0.5-1.4
		c2.9-7.3,5.3-11.3,7-11.9c1.8-0.7,4.5-1.3,8-1.7c3.5-0.4,7.3-0.6,11.4-0.6c6,0,11.1,0.6,15.5,1.9c4.4,1.3,8.1,3.3,11,5.9
		c2.5,2.2,4.3,4.9,5.3,8.1c1,3.2,1.6,8.3,1.6,15.3v27c0,4.6,0.5,7.3,1.5,8.3c1,1,2.9,1.5,5.7,1.6c-1.2,5.5-2.8,9.2-4.9,11.1
		c-2.1,1.9-5.6,2.9-10.6,2.9H522c-1.7,0-3.3,0.1-4.8,0.2c-1.5,0.2-2.9,0.4-4.2,0.7c0.2-1.5,0.4-3.1,0.5-4.6c0.1-1.5,0.2-3,0.2-4.3
		V143.1z M493,123.9c0,4.7,0.9,8.4,2.8,11.3c1.9,2.8,4.4,4.2,7.4,4.2c3.1,0,5.6-1.3,7.3-4c1.7-2.6,2.6-6.4,2.6-11.3
		c0-5-0.8-8.8-2.5-11.5c-1.6-2.7-4-4-7-4c-3.3,0-5.9,1.4-7.8,4.1C494,115.5,493,119.2,493,123.9 M565.4,53.8
		c5.5-1.3,10.6-3.3,15.5-5.9v24.5h6.4c2.2,0,4.2-0.2,6-0.6c1.8-0.4,3.5-1.1,5.1-2.2c-1.7,7-3.4,11.4-5.1,13.4c-1.7,2-4.3,3-7.9,3
		h-4.6v43.6c0,3.8,0.5,6.5,1.4,8.2c0.9,1.7,2.4,2.5,4.5,2.5c1,0,2.3-0.4,3.8-1.1c1.5-0.8,2.5-1.1,3-1.1c1.4,0,3.2,1.6,5.4,4.9
		c0.5,0.8,0.9,1.4,1.2,1.8c-4.1,3.3-8.1,5.8-11.8,7.3c-3.7,1.6-7.4,2.4-11.1,2.4c-7,0-12-2-15.2-6.1c-3.2-4.1-4.8-10.5-4.8-19.4v-43
		h-3.3c-1.1,0-2.4,0.2-3.9,0.6c-1.4,0.4-3,1-4.7,1.8c1.2-6.4,2.7-10.6,4.3-12.8c1.6-2.1,4.1-3.2,7.3-3.2h1.5v-7.1
		c0-3.6,0.4-6.1,1.1-7.4c0.7-1.3,2.1-2.5,4.1-3.6C563.9,54.2,564.4,54,565.4,53.8 M632.1,71.3c-0.3,3.8-0.6,7.3-0.7,10.4
		c-0.2,3.1-0.2,6.1-0.2,9c2.2-7.4,4.6-12.6,7.2-15.6c2.6-3,5.9-4.4,9.9-4.4c1,0,2.2,0,3.6,0.1c1.4,0,2.4,0.1,2.8,0.1
		c1,0,1.9,0,2.8-0.1c0.9-0.1,1.7-0.2,2.6-0.4c-0.8,5.3-1.6,9.2-2.3,11.7c-0.7,2.5-1.5,4.3-2.5,5.4c-1.5,1.7-4,2.8-7.6,3.3
		c-1,0.1-1.7,0.3-2.2,0.3c-3.7,0.7-6.4,2.1-8.1,4.2c-1.7,2.1-2.5,5.2-2.5,9.2v24.2c0,4.1,0.6,6.7,1.7,7.8c1.1,1.2,3.4,1.9,6.8,2.1
		c-2,6.4-3.7,10.4-5.1,11.8c-1.5,1.5-4,2.2-7.7,2.2h-23.5c1.4-3,2.4-5.9,3-8.6c0.7-2.7,1-5.4,1-7.9V94.8c0-3.4-0.5-5.6-1.4-6.5
		c-0.9-0.9-2.8-1.4-5.7-1.5c2-6.9,3.7-11.1,5.2-12.5c1.5-1.4,4.2-2.2,8.2-2.2c1.2,0,2.5,0,4.1,0.1c1.5,0,2.4,0.1,2.7,0.1
		c1.5,0,3-0.1,4.3-0.2C629.7,71.9,630.9,71.7,632.1,71.3 M708.8,143.1c-2.4,3.6-5.3,6.3-8.6,8.1c-3.3,1.8-7.1,2.7-11.4,2.7
		c-7.4,0-13.3-2.7-17.8-8.1s-6.8-12.5-6.8-21.4c0-8.8,2.4-15.9,7.3-21.2c4.8-5.3,11.3-7.9,19.3-7.9c3.8,0,7.2,0.8,10.2,2.4
		c3,1.6,5.4,3.9,7.1,6.9c0-0.5,0.1-1.1,0.1-1.7c0-0.6,0-1.5,0-2.7c0-6.4-1.4-10.9-4.1-13.6c-2.7-2.6-7.4-3.9-14.1-3.9
		c-3.3,0-6.7,0.3-10.1,0.9c-3.4,0.6-6.8,1.5-10.1,2.6l0.5-1.4c2.9-7.3,5.3-11.3,7-11.9c1.8-0.7,4.5-1.3,8-1.7
		c3.5-0.4,7.3-0.6,11.4-0.6c6,0,11.1,0.6,15.5,1.9c4.4,1.3,8.1,3.3,11,5.9c2.5,2.2,4.3,4.9,5.3,8.1c1,3.2,1.6,8.3,1.6,15.3v27
		c0,4.6,0.5,7.3,1.5,8.3c1,1,2.9,1.5,5.7,1.6c-1.2,5.5-2.8,9.2-4.9,11.1c-2.1,1.9-5.6,2.9-10.6,2.9h-5.1c-1.7,0-3.3,0.1-4.9,0.2
		c-1.5,0.2-2.9,0.4-4.2,0.7c0.2-1.5,0.4-3.1,0.5-4.6c0.1-1.5,0.2-3,0.2-4.3V143.1z M688.1,123.9c0,4.7,0.9,8.4,2.8,11.3
		c1.9,2.8,4.4,4.2,7.4,4.2c3.1,0,5.6-1.3,7.3-4c1.7-2.6,2.6-6.4,2.6-11.3c0-5-0.8-8.8-2.5-11.5c-1.6-2.7-4-4-7-4
		c-3.3,0-5.9,1.4-7.8,4.1C689.1,115.5,688.1,119.2,688.1,123.9 M754.9,72.3l16.2,0.1c-0.3,0.9-0.6,1.7-0.7,2.5
		c-0.2,0.8-0.2,1.6-0.2,2.5c0,2,1.2,6.2,3.6,12.8c1.1,3.2,2,5.7,2.7,7.5l4.8,14c1.2,3.6,2.2,7,3,10.1c0.8,3.1,1.3,6.1,1.7,8.9
		c0.2-2.1,0.7-4.6,1.4-7.3c0.7-2.8,1.8-6.4,3.3-10.8l4.3-12.7c0.5-1.6,0.9-3,1.2-4.2c0.3-1.2,0.4-2.2,0.4-3.1c0-2.2-0.7-3.8-2.1-4.8
		c-1.4-1-4-1.6-7.8-1.9c2.5-5.9,4.8-9.6,6.7-11.1c1.9-1.5,5-2.3,9.4-2.3h17.2c-1.1,1.9-2.2,4-3.2,6.4c-1.1,2.3-2.2,5-3.3,8
		L794,136.2c-1.5,3.9-2.7,6.7-3.4,8.4c-0.8,1.7-1.5,2.9-2.2,3.7c-1.4,1.6-3.4,3-5.9,4.1c-2.5,1.2-5.8,2.2-9.9,3.1
		c0.1-0.1,0.2-0.2,0.2-0.3c0-0.1,0.1-0.3,0.1-0.5c0-1.8-3.1-10.9-9.2-27.3c-2.2-5.9-3.9-10.5-5.2-13.9l-0.2-0.5
		c-6.6-17.7-12.6-26.8-18.2-27.3c2.6-6.2,4.8-10,6.5-11.4C748.2,73,751,72.3,754.9,72.3 M890,83.6c1,0.7,1.6,1.3,2,1.6
		c-1.4,3-2.3,6.5-2.7,10.5c-0.1,1-0.2,1.6-0.3,2c-0.8,3.7-2.2,6.8-4.2,9.1c-2,2.3-5.6,4.8-10.6,7.3l-22.8,11.5c2,4.9,4.5,8.6,7.6,11
		c3.1,2.4,6.8,3.7,11.1,3.7c2.1,0,5-0.5,8.4-1.4c3.5-0.9,5.9-1.4,7.2-1.4c2.4,0,5,2.1,7.8,6.2l0.3,0.5c-5.3,3.4-10.6,5.9-15.8,7.6
		c-5.2,1.7-10.5,2.5-15.6,2.5c-11.4,0-20.7-3.8-27.8-11.5c-7.1-7.6-10.7-17.7-10.7-30.1c0-6,0.9-11.5,2.6-16.5
		c1.8-5.1,4.4-9.6,7.8-13.7c3.4-3.9,7.3-6.8,11.9-8.8c4.6-2,9.4-3,14.7-3C869.1,70.6,878.7,75,890,83.6 M857.7,106.4
		c3.6-1.7,6.5-3.9,8.6-6.5c2.1-2.6,3.1-5.2,3.1-7.8c0-2.5-0.8-4.5-2.3-6.1c-1.5-1.6-3.5-2.4-5.9-2.4c-4,0-7.2,2-9.8,6
		c-2.5,4-3.8,9.3-3.8,15.7c0,0.8,0,1.7,0.1,2.6c0.1,1,0.2,2,0.4,3L857.7,106.4z M913.2,42.2h21.5c-1.1,2.9-1.9,5.7-2.5,8.4
		c-0.6,2.8-0.9,5.5-0.9,8.1v69.9c0,3.8,0.5,6.4,1.6,7.7s3,2,5.9,2.3c-1.9,6.3-3.6,10.2-5.1,11.7c-1.5,1.5-4.1,2.3-7.9,2.3h-21.4
		c1-3.1,1.8-6.1,2.4-8.8c0.5-2.8,0.8-5.3,0.8-7.7V66c0-3.9-0.5-6.5-1.5-7.7c-1-1.2-3-2-5.8-2.2c1.9-6.3,3.6-10.2,5-11.7
		C906.8,43,909.4,42.2,913.2,42.2"/>
	<path id="XMLID_6_" class="st3" d="M973.7,136.4l-3.1,9.7c-1.5,4.7-4.6,6.3-10.3,6.3h-10.5l3-9.7c1.5-4.7,4.6-6.3,10.3-6.3H973.7z"
		/>
	<path id="XMLID_5_" class="st3" d="M1024.2,106.1c-1.1,0.7-3,1-5.8,1h-1.7c0.3-1,0.5-1.8,0.5-2.4c0-3-2.5-5.3-6.2-5.3
		c-6.6,0-10.7,7-10.7,20.3c0,15,5.1,23.2,12.7,23.2c4.5,0,7.5-3.3,10.4-3.3c1.5,0,3.7,1.5,6.3,3.9c-4.7,6.7-12,10.1-21.7,10.1
		c-15.5,0-26.8-12.3-26.8-31.3c0-19.7,11.1-32.2,27.6-32.2c8.1,0,15.1,2.1,21.7,6.4C1027.4,101.8,1025.6,105.2,1024.2,106.1"/>
	<path class="st3" d="M1087.8,121.8c0,20.1-10.5,31.7-27.3,31.7c-16.8,0-27.2-11.8-27.2-31.7c0-20.1,10.5-31.7,27.2-31.7
		C1077.3,90.1,1087.8,101.8,1087.8,121.8 M1052.2,121.8c0,14.3,2.5,21.3,8.4,21.3c5.7,0,8.3-7,8.3-21.3c0-14.3-2.5-21.3-8.3-21.3
		C1054.9,100.5,1052.2,107.5,1052.2,121.8"/>
	<path id="XMLID_2_" class="st3" d="M1114.5,100.1c3.1-6.7,8.9-10.2,17-10.2c7.1,0,12.3,2.9,15.4,8.4c3.2-5.4,8.9-8.4,15.8-8.4
		c11.8,0,17.8,7,17.8,21v23.2c0,5.1,0.6,7.1,5.4,7.5c-2.7,8.9-3.5,10.6-9.4,10.6h-15.6c1.7-5.2,2.4-9.3,2.4-12.5v-30
		c0-6.7-2-9.9-6.7-9.9c-5.8,0-7.5,4.2-7.5,13.4v20.9c0,5.1,0.6,7.1,5.4,7.5c-2.7,8.9-3.5,10.6-9.4,10.6h-15.6
		c1.7-5.3,2.4-9.6,2.4-12.5v-30c0-6.7-2-9.9-6.7-9.9c-5.8,0-7.5,4.2-7.5,13.4v20.9c0,5.1,0.5,7,5.4,7.5c-2.7,8.9-3.5,10.6-9.4,10.6
		h-15.6c1.6-4.2,2.3-8.5,2.3-12.5v-31.3c0-4.6-0.2-5.9-5.1-6c2.5-9.4,3.2-11.1,9.7-11.1c2.3,0,4,0.1,4.9,0.1c2.1,0,4.1-0.2,5.9-0.7
		C1115.3,93.8,1114.8,96.9,1114.5,100.1"/>
</g>
</svg>
