<?xml version="1.0" encoding="utf-8"?>
<!-- Generator: Adobe Illustrator 19.0.0, SVG Export Plug-In . SVG Version: 6.00 Build 0)  -->
<svg version="1.1" id="Layer_1" xmlns="http://www.w3.org/2000/svg" xmlns:xlink="http://www.w3.org/1999/xlink" x="0px" y="0px"
	 viewBox="90 -91 200 200" style="enable-background:new 90 -91 200 200;" xml:space="preserve">
<g id="XMLID_156_">
	<g id="XMLID_12_">
		
			<linearGradient id="XMLID_2_" gradientUnits="userSpaceOnUse" x1="107.2302" y1="120.6589" x2="272.7698" y2="-104.6589" gradientTransform="matrix(1 0 0 -1 0 17)">
			<stop  offset="0" style="stop-color:#FF9966"/>
			<stop  offset="0.1478" style="stop-color:#FF8B65"/>
			<stop  offset="0.468" style="stop-color:#FF7263"/>
			<stop  offset="0.7611" style="stop-color:#FF6362"/>
			<stop  offset="1" style="stop-color:#FF5E62"/>
		</linearGradient>
		<rect id="XMLID_18_" x="90" y="-91" style="fill:url(#XMLID_2_);" width="200" height="200"/>
		
			<rect id="XMLID_17_" x="90" y="-91" style="fill:none;stroke:#EDEDED;stroke-width:0.5;stroke-miterlimit:10;" width="200" height="200"/>
	</g>
</g>
<g id="XMLID_46_">
	<path id="XMLID_393_" style="fill:#FFFFFF;" d="M190,25.8c-12.5,0-25,0-37.4,0c-5.5,0-8.9-3.5-8.9-8.9c0-15,0-30.1,0-45.1
		c0-5.4,3.5-8.9,8.8-8.9c25,0,50,0,75,0c5.4,0,8.9,3.5,8.9,8.9c0,15.1,0,30.1,0,45.2c0,5.3-3.5,8.8-8.8,8.8
		C215,25.8,202.5,25.8,190,25.8z M190,17.3c10.3,0,20.7,0,31,0c4.1,0,6.5-2.4,6.5-6.5c0-2.8,0-5.7,0-8.5c0-1.8-0.4-2.2-2.2-2.4
		c-2.9-0.3-5.1-2.8-5.1-5.7c0-2.9,2.3-5.3,5.2-5.6c1.6-0.1,2-0.6,2.1-2.2c0-3,0-5.9,0-8.9c0-3.8-2.5-6.3-6.3-6.3
		c-20.8,0-41.6,0-62.5,0c-3.8,0-6.2,2.4-6.3,6.2c0,3,0,6.1,0,9.1c0,1.5,0.5,2,2,2.1c3,0.2,5.3,2.6,5.4,5.5c0.1,3-2.2,5.4-5.3,5.7
		c-1.6,0.2-2.1,0.6-2.1,2.2c0,2.9,0.1,5.7,0,8.6c-0.1,4.1,3,6.7,6.7,6.6C169.4,17.2,179.7,17.3,190,17.3z"/>
	<path id="XMLID_392_" style="fill:#FFFFFF;" d="M190,55.1c-8.3,0-16.5,0-24.8,0c-2,0-2.4-0.5-2.5-2.4c0-1.9,0-3.7,0-5.6
		c0-3.5,2.4-5.8,5.9-5.8c14.3,0,28.5,0,42.8,0c3.5,0,5.8,2.3,5.9,5.8c0,1.9,0,3.9,0,5.8c0,1.7-0.6,2.2-2.2,2.2
		C206.7,55.1,198.3,55.1,190,55.1z"/>
	<path id="XMLID_391_" style="fill:#FFFFFF;" d="M172.6,37.9c0.6-3,1.2-5.9,1.8-8.8c10.4,0,20.6,0,31.1,0c0.6,2.9,1.2,5.8,1.8,8.8
		C195.8,37.9,184.3,37.9,172.6,37.9z"/>
	<path id="XMLID_382_" style="fill:#FFFFFF;" d="M167.7-25.4c0.3,2,0.7,2.7,1.8,2.7s1.6-0.8,1.7-2.7c0.3,0,0.7,0,1.1,0
		c16.2,0,32.5,0,48.7,0c2.3,0,3.3,0.9,3.3,3.2c0,2.3,0,4.5,0,6.8c0,0.6-0.1,0.8-0.7,1c-4,1.2-6.6,4.7-6.5,8.7c0,4,2.6,7.3,6.5,8.6
		c0.6,0.2,0.7,0.5,0.7,1c0,2.3,0,4.7,0,7c0,2.1-1,3-3.1,3c-16.3,0-32.7,0-49,0c-0.3,0-0.6,0-0.9,0c-0.3-2-0.7-2.6-1.8-2.6
		c-1,0-1.5,0.6-1.7,2.6c-0.2,0-0.5,0.1-0.8,0.1c-2.8,0-5.5,0-8.3,0c-1.8,0-2.9-1-2.9-2.8c-0.1-2.5,0-5,0-7.4c0-0.3,0.4-0.7,0.7-0.8
		c4.1-1.4,6.6-4.7,6.6-8.7s-2.5-7.4-6.6-8.6c-0.6-0.2-0.7-0.4-0.7-0.9c0-2.4,0-4.8,0-7.2c0-1.9,1.1-2.9,2.9-2.9
		C161.7-25.4,164.7-25.4,167.7-25.4z M190.2-1.2c-0.1,0.4-0.1,0.8-0.2,1.1c-0.4,2.4-0.9,4.8-1.3,7.2c-0.3,1.7,0.8,2.6,2.5,2
		c1.2-0.4,2.4-1,3.6-1.4c1-0.3,1.6-0.9,2-1.9c1.5-3.4,3-6.7,4.5-10.1c0.3-0.6,0.6-1,1.3-1.2c1.2-0.3,2.4-0.7,3.5-1.1
		c2.1-0.7,4.1-1.3,6.2-2.1c2-0.7,3.1-2.6,2.9-4.5s-1.7-3.3-3.8-3.6c-3.5-0.4-7-0.3-10.3,1.2c-0.9,0.4-1.7,0.4-2.6-0.1
		c-3.1-1.6-6.3-3.1-9.4-4.7c-0.9-0.4-1.7-0.5-2.5,0c-1.3,0.7-2.6,1.3-4,2c-1.5,0.8-1.7,2.1-0.4,3.2c1.4,1.2,2.8,2.3,4.1,3.4
		c0.4,0.3,0.8,0.7,1.3,1.1c-1.6,0.6-3,1.1-4.4,1.6c-0.3,0.1-0.7,0-1-0.2c-0.9-0.7-1.8-1.4-2.7-2.1c-0.8-0.7-1.5-0.8-2.5-0.5
		c-0.9,0.3-1.9,0.6-2.9,0.9c-1.6,0.5-2,1.7-0.9,3.1c1.8,2.2,3.7,4.4,5.6,6.7c1.2,1.4,2.7,2,4.5,1.8c0.9-0.1,1.8-0.3,2.7-0.5
		C187.5-0.3,188.8-0.7,190.2-1.2z M167.8,4.6c0,0.5,0,1,0,1.4c0.1,0.9,0.6,1.4,1.4,1.5c0.9,0.1,1.6-0.3,1.7-1.2
		c0.1-1.1,0.1-2.3,0-3.4c-0.1-0.9-0.8-1.3-1.6-1.3c-0.9,0-1.5,0.6-1.6,1.5C167.8,3.6,167.8,4.1,167.8,4.6z M167.8-15.6L167.8-15.6
		c0,0.5,0,1,0,1.4c0.1,0.9,0.6,1.5,1.5,1.5c0.9,0.1,1.6-0.4,1.7-1.2c0.1-1.2,0.1-2.3,0-3.5c-0.1-0.9-0.8-1.3-1.7-1.2
		c-0.9,0.1-1.4,0.6-1.5,1.5C167.8-16.6,167.8-16.1,167.8-15.6z M167.8-5.5L167.8-5.5c0,0.5,0,1,0,1.5c0.1,0.8,0.6,1.3,1.4,1.4
		c0.9,0.1,1.6-0.3,1.7-1.1c0.1-1.2,0.1-2.4,0-3.6c-0.1-0.9-0.8-1.2-1.7-1.2c-0.9,0.1-1.4,0.6-1.4,1.5C167.8-6.5,167.8-6,167.8-5.5z"
		/>
	<path id="XMLID_374_" style="fill:#FFFFFF;" d="M177.6-8.5c0.3,0.1,0.6,0.3,0.8,0.4c0.9,0.7,1.8,1.3,2.6,2.1
		c0.8,0.7,1.6,0.8,2.6,0.5c6.4-2.4,12.8-4.7,19.2-7.1c2.6-1,5.2-1,7.8-0.8c0.5,0,0.9,0.5,1.3,0.8c-0.4,0.4-0.7,1-1.1,1.1
		c-3.3,1.2-6.7,2.3-10.1,3.3c-1,0.3-1.6,0.8-2,1.8c-1.5,3.5-3.1,6.9-4.7,10.3c-0.2,0.5-0.8,0.9-1.2,1.3c-0.1-0.1-0.2-0.1-0.3-0.2
		c0.4-2.4,0.8-4.8,1.2-7.2c0.1-0.4,0.2-0.8,0.2-1.2c0.1-1.4-0.9-2.3-2.2-1.8c-1.8,0.6-3.5,1.3-5.2,1.9c-0.5,0.2-1,0.4-1.5,0.5
		c-1.8,0.5-3.3,0.3-4.5-1.4c-0.9-1.4-2.1-2.6-3.2-3.9C177.5-8.3,177.5-8.4,177.6-8.5z"/>
	<path id="XMLID_373_" style="fill:#FFFFFF;" d="M195.4-13.4c-1.4,0.5-2.5,0.9-3.6,1.3c-0.3,0.1-0.7,0.1-0.9-0.1
		c-1.6-1.3-3.2-2.6-4.9-4c1-0.9,2-1,3.2-0.3C191.2-15.5,193.3-14.5,195.4-13.4z"/>
</g>
</svg>
