<?xml version="1.0" encoding="utf-8"?>
<!-- Generator: Adobe Illustrator 19.0.0, SVG Export Plug-In . SVG Version: 6.00 Build 0)  -->
<svg version="1.1" id="Layer_1" xmlns="http://www.w3.org/2000/svg" xmlns:xlink="http://www.w3.org/1999/xlink" x="0px" y="0px"
	 viewBox="90 -91 200 200" style="enable-background:new 90 -91 200 200;" xml:space="preserve">
<g id="XMLID_168_">
	<g id="XMLID_14_">
		
			<linearGradient id="XMLID_2_" gradientUnits="userSpaceOnUse" x1="90" y1="8" x2="290" y2="8" gradientTransform="matrix(1 0 0 -1 0 17)">
			<stop  offset="0" style="stop-color:#ACD111"/>
			<stop  offset="0.0347" style="stop-color:#A5C810"/>
			<stop  offset="0.1553" style="stop-color:#90AF0D"/>
			<stop  offset="0.2905" style="stop-color:#809C0B"/>
			<stop  offset="0.4465" style="stop-color:#758E09"/>
			<stop  offset="0.6418" style="stop-color:#6E8608"/>
			<stop  offset="1" style="stop-color:#6C8408"/>
		</linearGradient>
		<rect id="XMLID_20_" x="90" y="-91" style="fill:url(#XMLID_2_);" width="200" height="200"/>
		
			<rect id="XMLID_19_" x="90" y="-91" style="fill:none;stroke:#EDEDED;stroke-width:0.5;stroke-miterlimit:10;" width="200" height="200"/>
	</g>
</g>
<g id="XMLID_31_">
	<path id="XMLID_335_" style="fill:#FFFFFF;" d="M225.2,57.8c-23.5,0-47,0-70.5,0c-0.7-0.3-1.5-0.6-2.1-1.1
		c-1.4-1.1-1.7-2.7-1.7-4.3c0-28.9,0-57.8,0-86.7c0-0.3,0-0.6,0-0.9c0.1-1.6,0.7-2.9,2.1-3.8c0.5-0.3,1.1-0.5,1.7-0.8
		c15,0,30,0,45,0c0,9.7,0,19.5,0,29.3c9.8,0,19.5,0,29.3,0c0,0.5,0,0.9,0,1.3c0,18.1,0,36.2,0,54.3c0,2.6,0,5.1,0,7.7
		c0,2.5-1.2,4-3.6,4.8C225.4,57.6,225.3,57.7,225.2,57.8z M190,28.5c7.8,0,15.7,0,23.5,0c0.5,0,1,0,1.5,0c2.3-0.2,3.9-1.8,4.2-4.3
		c0.3-2.4-1-4.5-3.2-5.1c-0.7-0.2-1.6-0.3-2.3-0.3c-15.8,0-31.6,0-47.4,0c-0.3,0-0.7,0-1,0c-2.6,0.2-4.3,1.9-4.5,4.5
		c-0.2,2.5,1.2,4.5,3.5,5c0.6,0.1,1.3,0.1,2,0.1C174.2,28.5,182.1,28.5,190,28.5z M182.7,38.3c-2.6,0-5.2,0-7.8,0
		c-3.3,0-6.7,0-10,0.1c-2.3,0.1-3.9,1.8-4.2,4.3s1,4.6,3.3,5.2c0.7,0.2,1.4,0.2,2.2,0.2c9.7,0,19.4,0,29,0c1.5,0,3,0,4.6,0
		c2.3-0.1,4-1.3,4.6-3.3c1-3.5-1.1-6.4-4.7-6.4C194,38.2,188.4,38.3,182.7,38.3z M160.8,8.9c9.8,0,19.4,0,29.1,0
		c0.2-6.8-5-14.5-14.5-14.6C165.9-5.6,160.6,2,160.8,8.9z M185.1-20.3c0-5.4-4.4-9.8-9.8-9.7c-5.3,0-9.7,4.4-9.7,9.8
		c0,5.3,4.5,9.8,9.8,9.7C180.8-10.5,185.1-14.9,185.1-20.3z"/>
	<path id="XMLID_323_" style="fill:#FFFFFF;" d="M209.5-20.3c0-6.4,0-12.7,0-18.9c6.3,6.3,12.6,12.6,18.9,18.9
		C222.4-20.3,216-20.3,209.5-20.3z"/>
</g>
</svg>
