<?xml version="1.0" encoding="utf-8"?>
<!-- Generator: Adobe Illustrator 19.0.0, SVG Export Plug-In . SVG Version: 6.00 Build 0)  -->
<svg version="1.1" id="Layer_1" xmlns="http://www.w3.org/2000/svg" xmlns:xlink="http://www.w3.org/1999/xlink" x="0px" y="0px"
	 viewBox="206 -194 475 452" style="enable-background:new 206 -194 475 452;" xml:space="preserve">
<g id="XMLID_140_">
	<g id="XMLID_12_">
		<linearGradient id="XMLID_2_" gradientUnits="userSpaceOnUse" x1="177" y1="32" x2="723.0037" y2="32">
			<stop  offset="0" style="stop-color:#ACD111"/>
			<stop  offset="0.0347" style="stop-color:#A5C810"/>
			<stop  offset="0.1553" style="stop-color:#90AF0D"/>
			<stop  offset="0.2905" style="stop-color:#809C0B"/>
			<stop  offset="0.4465" style="stop-color:#758E09"/>
			<stop  offset="0.6418" style="stop-color:#6E8608"/>
			<stop  offset="1" style="stop-color:#6C8408"/>
		</linearGradient>
		<path id="XMLID_18_" style="fill:url(#XMLID_2_);" d="M680.6,257.8H206.4c-0.2,0-0.4-0.2-0.4-0.4v-450.8c0-0.2,0.2-0.4,0.4-0.4
			h474.2c0.2,0,0.4,0.2,0.4,0.4v450.8C681,257.6,680.8,257.8,680.6,257.8z"/>
	</g>
</g>
<path id="XMLID_139_" style="opacity:0.1;fill:#353535;enable-background:new    ;" d="M443.5,193.9L443.5,193.9
	c-89.4,0-161.9-72.5-161.9-161.9l0,0c0-89.4,72.5-161.9,161.9-161.9l0,0c89.4,0,161.9,72.5,161.9,161.9l0,0
	C605.4,121.4,532.9,193.9,443.5,193.9z"/>
<g>
	<path style="fill:#FFFFFF;" d="M344.32,1.61c1.13-2.77,1.87-5.81,3.49-8.26c3.15-4.77,7.98-7.1,13.65-7.18
		c9.67-0.15,19.35-0.05,29.03-0.04c0.18,0,0.36,0.08,0.62,0.15c0,23.14,0,46.26,0,69.58c-1.03,0-1.98,0-2.93,0
		c-8.19,0-16.39-0.18-24.57,0.05c-9.91,0.27-17.69-5.85-19.11-15.19c-0.02-0.12-0.11-0.23-0.16-0.35
		C344.32,27.44,344.32,14.52,344.32,1.61z"/>
	<path style="fill:#FFFFFF;" d="M402.87,58.12c0-24.82,0-49.46,0-74.27c19.28-6.43,38.57-12.86,58-19.33c0,37.72,0,75.2,0,112.92
		C441.49,70.98,422.24,64.57,402.87,58.12z"/>
	<path style="fill:#FFFFFF;" d="M472.56,20.77c0-19.04-0.01-38.08,0.01-57.12c0-5.62,2.89-9.98,7.61-11.65
		c7.07-2.5,14.36,1.86,15.47,9.27c0.13,0.89,0.15,1.8,0.15,2.7c0.01,38.01,0.01,76.03,0,114.04c0,6.49-3.47,11.14-9.19,12.4
		c-6.66,1.47-13.12-3.16-13.94-10.01c-0.11-0.96-0.11-1.93-0.11-2.9C472.56,58.59,472.56,39.68,472.56,20.77z"/>
	<path style="fill:#FFFFFF;" d="M363.76,67.47c0.72,0,1.35,0,1.98,0c8.91,0,17.82-0.09,26.73,0.07c1.99,0.03,4,0.81,5.94,1.44
		c0.43,0.14,0.79,1.06,0.87,1.66c0.33,2.81,0.56,5.63,0.82,8.46c2.44,0,4.74-0.09,7.04,0.02c3.53,0.17,6.01-1.13,7.13-4.92
		c3.71,1.22,7.33,2.42,11.1,3.66c-4.1,11.88-13.37,13.73-24.25,12.72c0.52,5.36,0.79,10.38,1.52,15.34
		c1.27,8.64-4.77,17.48-13.39,19.22c-9.33,1.89-17.94-3.19-20.56-12.36c-0.7-2.45-0.75-5.09-1.03-7.65
		c-1.32-12.06-2.61-24.12-3.9-36.18C363.72,68.52,363.76,68.08,363.76,67.47z"/>
	<path style="fill:#FFFFFF;" d="M513.82,32.63c0.39,0.12,1.3,0.27,2.09,0.66c7.81,3.8,15.62,7.62,23.4,11.49
		c2.44,1.21,3.66,3.61,3.32,6.02c-0.34,2.42-2.15,4.52-4.6,4.85c-1.26,0.17-2.76-0.02-3.9-0.56c-7.79-3.71-15.52-7.52-23.25-11.37
		c-2.74-1.37-3.97-4.07-3.25-6.73C508.33,34.37,510.65,32.59,513.82,32.63z"/>
	<path style="fill:#FFFFFF;" d="M542.67-19.41c-0.1,1.94-1.05,3.78-3.14,4.82c-7.95,3.96-15.91,7.92-23.92,11.76
		c-2.91,1.39-6.18,0.1-7.56-2.67c-1.4-2.8-0.47-6.16,2.43-7.64c7.98-4.05,15.99-8.04,24.09-11.84
		C538.4-26.77,542.63-23.88,542.67-19.41z"/>
	<path style="fill:#FFFFFF;" d="M525.06,20.98c-3.74,0-7.47,0.02-11.21-0.01c-3.79-0.02-6.38-2.37-6.41-5.75
		c-0.03-3.46,2.59-5.85,6.49-5.86c7.41-0.02,14.82-0.02,22.23,0c3.9,0.01,6.53,2.39,6.51,5.84c-0.02,3.44-2.65,5.75-6.59,5.77
		C532.4,20.99,528.73,20.98,525.06,20.98z"/>
</g>
</svg>
