<?xml version="1.0" encoding="utf-8"?>
<!-- Generator: Adobe Illustrator 19.0.0, SVG Export Plug-In . SVG Version: 6.00 Build 0)  -->
<svg version="1.1" id="Layer_1" xmlns="http://www.w3.org/2000/svg" xmlns:xlink="http://www.w3.org/1999/xlink" x="0px" y="0px"
	 viewBox="90 -91 200 200" style="enable-background:new 90 -91 200 200;" xml:space="preserve">
<g id="XMLID_182_">
	<g id="XMLID_14_">
		
			<linearGradient id="XMLID_2_" gradientUnits="userSpaceOnUse" x1="90" y1="8" x2="290" y2="8" gradientTransform="matrix(1 0 0 -1 0 17)">
			<stop  offset="0" style="stop-color:#8F94FB"/>
			<stop  offset="0.1952" style="stop-color:#7B80EB"/>
			<stop  offset="0.4975" style="stop-color:#6268D8"/>
			<stop  offset="0.7743" style="stop-color:#5359CC"/>
			<stop  offset="1" style="stop-color:#4E54C8"/>
		</linearGradient>
		<rect id="XMLID_20_" x="90" y="-91" style="fill:url(#XMLID_2_);" width="200" height="200"/>
		
			<rect id="XMLID_19_" x="90" y="-91" style="fill:none;stroke:#EDEDED;stroke-width:0.5;stroke-miterlimit:10;" width="200" height="200"/>
	</g>
</g>
<g id="XMLID_34_">
	<path id="XMLID_480_" style="fill:#FFFFFF;" d="M174.5,11c0.4,11,4.4,20.7,9.6,30.1c0.5-2,0.9-4.1,1.4-6.1
		c0.9-3.8,1.7-7.6,2.6-11.4c0.2-0.8,0.1-1.3-0.5-1.9c-0.8-0.8-1.5-1.6-2.2-2.4c-0.9-1.1-0.7-2,0.6-2.5c1.1-0.4,2.2-0.9,3.4-1.2
		c0.3-0.1,0.8-0.1,1.1,0c1.1,0.4,2.2,0.8,3.3,1.2c1.4,0.6,1.6,1.5,0.7,2.6c-0.4,0.5-0.9,1.1-1.4,1.6c-1.3,1-1.4,2.2-1,3.8
		c1.2,5,2.3,10.1,3.4,15.1c0.1,0.4,0.2,0.7,0.4,1.5c4.9-9.7,9-19.4,9.5-30.5c3.5,1.4,7.1,2.4,10.3,4c5.6,2.9,9,7.7,10.3,13.8
		c1.3,5.8,2.5,11.7,3.6,17.6c0.6,2.9-0.5,5-3.3,6.2c-8.9,3.7-18.2,6.1-27.8,7c-15.5,1.5-30.4-1-44.8-6.9c-3-1.2-4.1-3.3-3.4-6.5
		c1.2-5.7,2.3-11.5,3.6-17.2c1.7-7.3,6-12.5,13.1-15.2C169.5,12.5,171.9,11.8,174.5,11z"/>
	<path id="XMLID_477_" style="fill:#FFFFFF;" d="M206.2-3.1c-1.1,1.9-2,3.9-3.2,5.6s-2.5,3.3-4,4.6c-5.8,5.1-12.9,4.9-18.6-0.3
		c-2.5-2.3-4.4-5.1-5.8-8.2c-0.5-1.2-1.3-1.7-2.6-1.6c-4,0.3-4.2,0.1-5.5-3.7c-0.6-1.9-1.2-3.8-1.8-5.6c-0.6-1.7-0.3-2.8,1.2-3.9
		c1.1-0.8,1.4-1.7,1.4-3c-0.4-11.7,8.2-21.3,19.9-22.3c4.6-0.4,9.1,0.1,13.3,2.1c8.7,4.3,12.6,11.5,12.3,21.1c0,0.8,0.2,1.2,0.8,1.6
		c2.3,1.8,2.4,2.3,1.5,5.1c-0.7,2.2-1.4,4.4-2.1,6.5c-0.5,1.6-1.4,2.2-3.1,2.2C208.6-2.9,207.4-3,206.2-3.1z M178.2,0.3
		c1.7,2.6,3.9,4.9,6.6,6.6c3.7,2.4,7.4,2.2,11-0.3c0.6-0.4,1.3-0.9,1.8-1.5c4.7-4.4,6.9-10,8.3-16.1c0.6-2.8,0.3-5.4-1-7.9
		c-0.9-1.9-2.1-3.5-3.8-5.1c-1,3.9-3.9,5.3-7.2,5.9c-2.6,0.5-5.2,0.6-7.9,0.9c-2.7,0.3-5.3,0.5-7.8,1.8c-2.8,1.5-4,4.3-3.1,7.3
		c0.2,0.6,0.3,1.2,0.5,1.8c-0.5-0.2-1-0.5-1.1-0.9c-1.2-3.7-2.3-7.4-3.5-11.1c0-0.3,0-0.6,0-0.9c0-4.5,1.2-8.6,4.3-12
		c4.2-4.7,9.5-6.5,15.6-6.3c10.3,0.3,18.5,7.9,18.2,18.5c-0.1,1.9-0.2,3.8-0.3,5.7c0.8-2,1.8-4,1.9-6c0.3-5.8-1.7-10.8-6-14.7
		c-4.8-4.4-10.6-6.1-17-5.3c-8.3,0.9-14.3,5.1-17.2,13.1c-1,2.6-1.6,5.4-0.7,8.2c1.2,3.9,2.4,7.9,3.7,11.8c0.2,0.6,0.5,1.2,1,1.5
		c3.6,2.6,7.6,4.5,11.9,5.7c0.4,0.1,1-0.1,1.3-0.3c1.2-0.8,3.3-1,4.4,0c0.5,0.4,0.9,1.3,0.8,1.9c0,0.5-0.6,1.3-1.2,1.5
		c-1.3,0.6-2.6,0.4-3.9-0.4c-0.3-0.2-0.5-0.4-0.8-0.5C184.1,2.1,181.1,1.2,178.2,0.3z"/>
</g>
</svg>
