<?xml version="1.0" encoding="utf-8"?>
<!-- Generator: Adobe Illustrator 19.0.0, SVG Export Plug-In . SVG Version: 6.00 Build 0)  -->
<svg version="1.1" id="Layer_1" xmlns="http://www.w3.org/2000/svg" xmlns:xlink="http://www.w3.org/1999/xlink" x="0px" y="0px"
	 viewBox="90 -91 200 200" style="enable-background:new 90 -91 200 200;" xml:space="preserve">
<g id="XMLID_167_">
	<g id="XMLID_14_">
		
			<linearGradient id="XMLID_2_" gradientUnits="userSpaceOnUse" x1="90" y1="8" x2="290" y2="8" gradientTransform="matrix(1 0 0 -1 0 17)">
			<stop  offset="0" style="stop-color:#DD5E92"/>
			<stop  offset="0.0313" style="stop-color:#D95A8E"/>
			<stop  offset="0.3071" style="stop-color:#B83A6B"/>
			<stop  offset="0.568" style="stop-color:#A02352"/>
			<stop  offset="0.806" style="stop-color:#911543"/>
			<stop  offset="1" style="stop-color:#8C103E"/>
		</linearGradient>
		<rect id="XMLID_20_" x="90" y="-91" style="fill:url(#XMLID_2_);" width="200" height="200"/>
		
			<rect id="XMLID_19_" x="90" y="-91" style="fill:none;stroke:#EDEDED;stroke-width:0.5;stroke-miterlimit:10;" width="200" height="200"/>
	</g>
</g>
<g id="XMLID_36_">
	<path id="XMLID_355_" style="fill:#FFFFFF;" d="M244-2.5c0,0.5,0,1,0,1.4c0,16,0,31.9,0,47.9c0,7.5-4.9,12.4-12.4,12.4
		c-27.8,0-55.6,0-83.4,0c-7.5,0-12.4-4.9-12.4-12.4c0-16,0-31.9,0-47.9c0-0.4,0-0.9,0-1.4C172-2.5,207.9-2.5,244-2.5z M169.1,28.3
		c-1.6,1.6-3.2,3.1-4.7,4.7c-1.8,1.8-1.9,4.1-0.3,5.8c1.6,1.6,3.9,1.5,5.8-0.3c1.9-1.8,3.7-3.7,5.6-5.5c0.4-0.4,1-0.7,1.5-0.7
		c4.7-0.1,9.5,0,14.2,0c0.2,0,0.5,0.1,1.1,0.2c-0.6,0.4-0.9,0.7-1.2,0.9c-2.6,2.6-5.1,5.1-7.7,7.7c-1.1,1.1-1.5,2.5-1,4
		s1.5,2.3,3,2.6s2.6-0.4,3.7-1.4c4.4-4.4,8.8-8.8,13.2-13.2c0.4-0.4,1.2-0.7,1.7-0.7c2.9-0.1,5.8,0,8.7,0c2.4,0,4.1-1.6,4.1-3.8
		c0-2.2-1.7-3.9-4.1-3.9c-2.9,0-5.7,0-8.6,0c-0.8,0-1.4-0.3-2-0.8c-4.4-4.4-8.8-8.8-13.2-13.2c-1.8-1.7-4.1-1.8-5.7-0.2
		c-1.6,1.6-1.5,3.9,0.2,5.7c2.5,2.6,5.1,5.1,7.7,7.7c0.2,0.2,0.4,0.5,0.8,0.9c-5.4,0-10.5,0-15.6,0c-0.3,0-0.7-0.3-1-0.6
		c-1.9-1.9-3.8-3.8-5.6-5.6c-1.8-1.8-4.1-2-5.8-0.3c-1.6,1.6-1.5,3.9,0.3,5.8C166,25.2,167.5,26.7,169.1,28.3z"/>
	<path id="XMLID_354_" style="fill:#FFFFFF;" d="M155.2-33.5c0,3.8,0,7.4,0,11c0,6.2,3.4,10.5,9.5,11.9c0.1,0,0.1,0.1,0.2,0.2
		c-9.6,0-19.2,0-28.9,0c0-0.4-0.1-0.7-0.1-1.1c0-3.4,0-6.8,0-10.2c0-6.8,5.1-11.8,11.8-11.8C150.2-33.5,152.7-33.5,155.2-33.5z"/>
	<path id="XMLID_353_" style="fill:#FFFFFF;" d="M224.7-33.3c3.2,0,6.3-0.3,9.3,0.1c5.5,0.7,9.4,4.7,9.9,10.1
		c0.4,4.2,0.1,8.5,0.1,12.8c-9.6,0-19.3,0-29,0c5.7-1.5,9.2-5.1,9.7-10.3c0.3-2.7,0.1-5.4,0.1-8.1C224.7-30.3,224.7-31.8,224.7-33.3
		z"/>
	<path id="XMLID_352_" style="fill:#FFFFFF;" d="M170.7-29.6c0,2.5,0,5,0,7.5c0,2.4-1.6,4.1-3.8,4.1c-2.2,0-3.9-1.7-3.9-4.1
		c0-4.9,0-9.9,0-14.8c0-2.5,1.6-4.2,3.9-4.2c2.2,0,3.8,1.7,3.8,4.2C170.7-34.5,170.7-32.1,170.7-29.6z"/>
	<path id="XMLID_351_" style="fill:#FFFFFF;" d="M186.1-29.7c0-2.5,0-4.9,0-7.4c0-2.4,1.7-4.2,3.9-4.1c2.2,0,3.8,1.7,3.8,4.1
		c0,5,0,10,0,15c0,2.4-1.7,4.1-3.8,4.1c-2.2,0-3.9-1.7-3.9-4.1C186.1-24.6,186.1-27.2,186.1-29.7z"/>
	<path id="XMLID_350_" style="fill:#FFFFFF;" d="M209.3-29.7c0-2.5,0-4.9,0-7.4c0-2.4,1.6-4.1,3.8-4.1c2.2,0,3.9,1.7,3.9,4.2
		c0,4.9,0,9.9,0,14.8c0,2.4-1.6,4.2-3.9,4.2c-2.2,0-3.8-1.8-3.8-4.2C209.3-24.7,209.3-27.2,209.3-29.7z"/>
	<path id="XMLID_349_" style="fill:#FFFFFF;" d="M188.4-10.3c-6.8,0-13.2,0-19.6,0c2.4-0.6,4.5-1.7,6.3-3.4c1.8-1.8,2.8-4,3.3-6.4
		C179.6-14.9,182.8-11.6,188.4-10.3z"/>
	<path id="XMLID_348_" style="fill:#FFFFFF;" d="M191.7-10.4c5.5-1.3,8.7-4.5,9.8-10.2c1.2,5.6,4.4,8.9,9.9,10.2
		C204.8-10.4,198.3-10.4,191.7-10.4z"/>
</g>
</svg>
