<?xml version="1.0" encoding="utf-8"?>
<!-- Generator: Adobe Illustrator 19.0.0, SVG Export Plug-In . SVG Version: 6.00 Build 0)  -->
<svg version="1.1" id="Layer_1" xmlns="http://www.w3.org/2000/svg" xmlns:xlink="http://www.w3.org/1999/xlink" x="0px" y="0px"
	 viewBox="90 -91 200 200" style="enable-background:new 90 -91 200 200;" xml:space="preserve">
<g id="XMLID_181_">
	<g id="XMLID_14_">
		
			<linearGradient id="XMLID_2_" gradientUnits="userSpaceOnUse" x1="90" y1="8" x2="290" y2="8" gradientTransform="matrix(1 0 0 -1 0 17)">
			<stop  offset="0" style="stop-color:#FFC617"/>
			<stop  offset="0.0473" style="stop-color:#FDBF1F"/>
			<stop  offset="0.199" style="stop-color:#F8AE32"/>
			<stop  offset="0.3751" style="stop-color:#F5A240"/>
			<stop  offset="0.5955" style="stop-color:#F39B48"/>
			<stop  offset="1" style="stop-color:#F2994A"/>
		</linearGradient>
		<rect id="XMLID_20_" x="90" y="-91" style="fill:url(#XMLID_2_);" width="200" height="200"/>
		
			<rect id="XMLID_19_" x="90" y="-91" style="fill:none;stroke:#EDEDED;stroke-width:0.5;stroke-miterlimit:10;" width="200" height="200"/>
	</g>
</g>
<g id="XMLID_21_">
	<path id="XMLID_324_" style="fill:#FFFFFF;" d="M171.7-39.8c14,0,28.1,0,42.1,0c0,7.1,0,14.2,0,21.3c0,2.4,1.1,3.4,3.4,3.4
		c6.8,0,13.5,0,20.3,0c0.3,0,0.7,0,1.1,0c0,0.5,0,0.9,0,1.2c0,10.6,0,21.1,0,31.7c0,10.3,0,20.7,0,31c0,3.9-2.2,7-5.7,8.3
		c-0.6,0.2-1.1,0.3-1.7,0.5c-15.3,0-30.6,0-45.9,0c0.2-0.2,0.4-0.3,0.6-0.5c5.8-4.3,9.6-9.9,11.6-16.9c0.5-1.8,0.8-3.6,1.2-5.5
		c0.7,0,1.5,0,2.3,0c7.1,0,14.2,0,21.2,0c1.3,0,2.4-0.5,2.9-1.7c0.9-2-0.6-4-2.8-4c-7.5,0-15,0-22.6,0c-0.4,0-0.7,0-1.1,0
		c-0.4-4.1-1.5-7.8-3.3-11.4c4.4,0,8.7,0,12.9,0c4.7,0,9.4,0,14.1,0c1.3,0,2.3-0.5,2.8-1.7c0.9-2-0.6-4-2.9-4c-9.8,0-19.6,0-29.4,0
		c-0.9,0-1.5-0.3-2.2-1C185,5,178.2,1.5,170,0.8c-1.9-0.2-3.8,0-5.7,0c0-0.3-0.1-0.4-0.1-0.5c0-10.6,0-21.1,0-31.7
		c0-2.7,1.1-4.9,3.3-6.4C168.8-38.7,170.3-39.2,171.7-39.8z M201.3,0.6c0.5,0,1,0,1.4,0c6.4,0,12.9,0,19.3,0c1.3,0,2.4-0.5,2.9-1.7
		c0.9-2-0.6-4-2.9-4c-10.8,0-21.5,0-32.3,0c-3.1,0-6.2,0-9.2,0c-1.2,0-2.2,0.5-2.7,1.6c-1,2,0.4,4.1,2.8,4.1
		C187.5,0.6,194.4,0.6,201.3,0.6z"/>
	<path id="XMLID_320_" style="fill:#FFFFFF;" d="M165,57.8c-2.2-0.5-4.5-0.8-6.5-1.6c-9.8-3.8-15.7-10.9-16.9-21.4
		c-1.6-13.9,8-26,21.8-28.2c13.5-2.1,26.9,7.6,29,21.2c2.3,14.5-7.3,27.6-21.8,29.7c-0.5,0.1-1,0.2-1.5,0.2
		C167.8,57.8,166.4,57.8,165,57.8z M167.2,36c0.3,0.4,0.5,0.7,0.8,0.9c1.9,1.9,3.7,3.7,5.6,5.6c1.3,1.3,3,1.3,4.2,0.2
		c1.2-1.1,1.1-2.9-0.1-4.2c-1.2-1.2-2.4-2.4-3.6-3.6c-0.9-0.9-1.9-1.8-2.9-2.7c0.4-0.4,0.6-0.7,0.9-0.9c1.9-1.9,3.8-3.8,5.7-5.7
		c1.2-1.2,1.1-3,0-4.1c-1.1-1.1-2.8-1.1-4,0.1c-0.4,0.4-0.9,0.8-1.3,1.3c-1.7,1.7-3.4,3.4-5.2,5.2c-0.3-0.3-0.5-0.5-0.7-0.7
		c-1.9-1.9-3.8-3.8-5.7-5.7c-0.8-0.8-1.7-1.2-2.8-0.9c-2.2,0.5-2.9,3.2-1.3,4.9c1.9,1.9,3.8,3.8,5.7,5.7c0.2,0.2,0.5,0.5,0.7,0.8
		c-2.2,2.2-4.2,4.2-6.3,6.3c-0.8,0.8-1.2,1.7-1,2.8c0.5,2.3,3.2,3,4.9,1.3C162.8,40.4,164.9,38.3,167.2,36z"/>
	<path id="XMLID_314_" style="fill:#FFFFFF;" d="M236.5-20.7c-5.5,0-11.2,0-16.9,0c0-5.7,0-11.4,0-16.9
		C225.2-32.1,230.8-26.4,236.5-20.7z"/>
</g>
</svg>
