<?xml version="1.0" encoding="utf-8"?>
<!-- Generator: Adobe Illustrator 19.0.0, SVG Export Plug-In . SVG Version: 6.00 Build 0)  -->
<svg version="1.1" id="Layer_1" xmlns="http://www.w3.org/2000/svg" xmlns:xlink="http://www.w3.org/1999/xlink" x="0px" y="0px"
	 viewBox="228 -217 475 452" style="enable-background:new 228 -217 475 452;" xml:space="preserve">
<g id="XMLID_134_">
	<g id="XMLID_12_">
		
			<linearGradient id="XMLID_2_" gradientUnits="userSpaceOnUse" x1="228" y1="-424" x2="703.1" y2="-424" gradientTransform="matrix(1 0 0 1 0 433)">
			<stop  offset="0" style="stop-color:#56CCF2"/>
			<stop  offset="0.0309" style="stop-color:#52C4F1"/>
			<stop  offset="0.152" style="stop-color:#45ABF0"/>
			<stop  offset="0.2878" style="stop-color:#3B98EF"/>
			<stop  offset="0.4444" style="stop-color:#348AEE"/>
			<stop  offset="0.6404" style="stop-color:#3082ED"/>
			<stop  offset="1" style="stop-color:#2F80ED"/>
		</linearGradient>
		<path id="XMLID_18_" style="fill:url(#XMLID_2_);" d="M702.9,234.8H228.1c0,0-0.1,0-0.1-0.1v-451.4c0,0,0-0.1,0.1-0.1H703
			c0,0,0.1,0,0.1,0.1L702.9,234.8C703,234.8,703,234.8,702.9,234.8z"/>
	</g>
</g>
<path id="XMLID_62_" style="opacity:0.1;fill:#353535;enable-background:new    ;" d="M469.5,170.8h-7.9
	c-89.3,0-161.8-72.4-161.8-161.8l0,0c0-89.3,72.4-161.8,161.8-161.8h7.9c89.3,0,161.8,72.4,161.8,161.8l0,0
	C631.2,98.3,558.8,170.8,469.5,170.8z"/>
<g id="XMLID_142_">
	<path id="XMLID_273_" style="fill:#FCFCFC;" d="M398.6,24.8c0-25.4,0-50.8,0-76.2c0-7.8,4.2-11.9,12-11.9c36.6,0,73.2,0,109.9,0
		c7.9,0,12,4.1,12,12.1c0,50.6,0,101.3,0,151.9c0,8.1-4.1,12.1-12.2,12.1c-36.5,0-73.1,0-109.6,0c-7.9,0-12-4.2-12-12.1
		C398.6,75.4,398.6,50.1,398.6,24.8z M465.3-29.8c-19.2,0-35.1,15.8-35.1,35c0,19.5,15.6,35.4,34.9,35.4
		c19.7,0.1,35.5-15.6,35.5-35.2C500.7-14.1,484.8-29.8,465.3-29.8z M465.3,79.4c4.9,0,9.8,0,14.8,0c4.5,0,9,0,13.4,0
		c2.2,0,3.7-1.5,3.7-3.5s-1.5-3.4-3.7-3.5c-0.6,0-1.2,0-1.8,0c-16.1,0-32.1,0-48.2,0c-2.1,0-4.3-0.3-6.4,0.1c-1.2,0.2-2.7,1.5-3,2.6
		c-0.3,1,0.5,2.7,1.3,3.6c0.6,0.7,2,0.7,3.1,0.7C447.3,79.4,456.3,79.4,465.3,79.4z M465.4,61.8c-4.4,0-8.8,0-13.2,0
		c-2.8,0-4.4,1.3-4.4,3.5s1.6,3.6,4.3,3.6c8.8,0,17.6,0,26.4,0c2.8,0,4.4-1.3,4.4-3.5s-1.6-3.6-4.3-3.6
		C474.3,61.7,469.8,61.8,465.4,61.8z"/>
	<path id="XMLID_272_" style="fill:#FCFCFC;" d="M504.3-70.4c-27.4,0-54.5,0-81.7,0c0-0.1-0.1-0.2-0.1-0.3c4.2-1.5,8.3-3,12.5-4.4
		c18-6.3,36.1-12.6,54.1-18.9c8.2-2.9,15.1,2,15.1,10.7C504.3-79.1,504.3-74.9,504.3-70.4z"/>
	<path id="XMLID_261_" style="fill:#FCFCFC;" d="M472.6,1.8c-4.9,0-9.4,0-14.1,0c0.5-7.8,1.3-15.3,4.9-22.2c0.5-0.9,1.5-1.5,2.2-2.3
		c0.7,0.7,1.6,1.4,2,2.2c2.8,5.2,3.8,10.9,4.5,16.7C472.3-2,472.3-0.2,472.6,1.8z"/>
	<path id="XMLID_260_" style="fill:#FCFCFC;" d="M458.3,8.9c1,0,1.7,0,2.3,0c3.9,0,7.8,0,11.9,0c-0.6,8.1-1.3,15.9-5.3,23
		c-1.2,2.1-2.5,2.2-3.4,0c-1.7-4.4-3.2-8.9-4.4-13.5C458.6,15.5,458.6,12.3,458.3,8.9z"/>
	<path id="XMLID_259_" style="fill:#FCFCFC;" d="M493.2,1.8c-4.4,0-8.9,0-13,0c-1.4-7.5-2.8-14.9-4.2-22.2
		C483.6-19.2,493.2-7,493.2,1.8z"/>
	<path id="XMLID_258_" style="fill:#FCFCFC;" d="M476.1,31.2c1.4-7.3,2.7-14.6,4.2-22.2c3.9,0,8.4,0,12.8,0
		C494,16.7,483.8,29.6,476.1,31.2z"/>
	<path id="XMLID_257_" style="fill:#FCFCFC;" d="M454.8-20.5c-1.4,7.3-2.8,14.6-4.2,22.2c-3.9,0-8.4,0-12.9,0
		C437.6-6.8,446.6-18.4,454.8-20.5z"/>
	<path id="XMLID_256_" style="fill:#FCFCFC;" d="M437.8,9c4.5,0,8.9,0,13,0c1.4,7.5,2.8,14.9,4.1,22.1C448.1,30.9,437.8,18,437.8,9z
		"/>
</g>
</svg>
